<mxfile host="Electron" modified="2024-07-15T00:47:22.764Z" agent="Mozilla/5.0 (Macintosh; Intel Mac OS X 10_15_7) AppleWebKit/537.36 (KHTML, like Gecko) draw.io/24.6.4 Chrome/124.0.6367.207 Electron/30.0.6 Safari/537.36" etag="rJBiOvv-BmzxvWqeS0fv" version="24.6.4" type="device">
  <diagram name="第 1 页" id="FOPQpqoZ47g2fpfDMXAR">
    <mxGraphModel dx="4780" dy="2627" grid="1" gridSize="10" guides="1" tooltips="1" connect="1" arrows="1" fold="1" page="1" pageScale="1" pageWidth="827" pageHeight="1169" math="0" shadow="0">
      <root>
        <mxCell id="0" />
        <mxCell id="1" parent="0" />
        <mxCell id="fuDXxDLX_zgl0YoyhHLf-1" value="" style="rounded=0;whiteSpace=wrap;html=1;strokeWidth=8;" parent="1" vertex="1">
          <mxGeometry x="20" y="150" width="300" height="300" as="geometry" />
        </mxCell>
        <mxCell id="fuDXxDLX_zgl0YoyhHLf-2" value="&lt;font style=&quot;font-size: 80px;&quot;&gt;1&lt;/font&gt;" style="rounded=0;whiteSpace=wrap;html=1;strokeWidth=8;fillColor=#000000;fontColor=#ffffff;fontSize=46;" parent="1" vertex="1">
          <mxGeometry x="20" y="150" width="100" height="100" as="geometry" />
        </mxCell>
        <mxCell id="fuDXxDLX_zgl0YoyhHLf-3" value="&lt;font style=&quot;font-size: 80px;&quot;&gt;1&lt;/font&gt;" style="rounded=0;whiteSpace=wrap;html=1;strokeWidth=8;fillColor=#000000;fontColor=#ffffff;fontSize=46;" parent="1" vertex="1">
          <mxGeometry x="120" y="250" width="100" height="100" as="geometry" />
        </mxCell>
        <mxCell id="fuDXxDLX_zgl0YoyhHLf-4" value="&lt;font style=&quot;font-size: 80px;&quot;&gt;1&lt;/font&gt;" style="rounded=0;whiteSpace=wrap;html=1;strokeWidth=8;fillColor=#000000;fontColor=#ffffff;fontSize=46;" parent="1" vertex="1">
          <mxGeometry x="220" y="350" width="100" height="100" as="geometry" />
        </mxCell>
        <mxCell id="fuDXxDLX_zgl0YoyhHLf-5" value="&lt;font color=&quot;#000000&quot; style=&quot;font-size: 80px;&quot;&gt;0&lt;/font&gt;" style="rounded=0;whiteSpace=wrap;html=1;strokeWidth=8;fillColor=#ffffff;fontColor=#ffffff;fontSize=46;" parent="1" vertex="1">
          <mxGeometry x="220" y="150" width="100" height="100" as="geometry" />
        </mxCell>
        <mxCell id="fuDXxDLX_zgl0YoyhHLf-6" value="&lt;font color=&quot;#000000&quot; style=&quot;font-size: 80px;&quot;&gt;0&lt;/font&gt;" style="rounded=0;whiteSpace=wrap;html=1;strokeWidth=8;fillColor=#ffffff;fontColor=#ffffff;fontSize=46;" parent="1" vertex="1">
          <mxGeometry x="120" y="150" width="100" height="100" as="geometry" />
        </mxCell>
        <mxCell id="fuDXxDLX_zgl0YoyhHLf-7" value="&lt;font color=&quot;#000000&quot; style=&quot;font-size: 80px;&quot;&gt;0&lt;/font&gt;" style="rounded=0;whiteSpace=wrap;html=1;strokeWidth=8;fillColor=#ffffff;fontColor=#ffffff;fontSize=46;" parent="1" vertex="1">
          <mxGeometry x="220" y="250" width="100" height="100" as="geometry" />
        </mxCell>
        <mxCell id="fuDXxDLX_zgl0YoyhHLf-8" value="&lt;font color=&quot;#000000&quot; style=&quot;font-size: 80px;&quot;&gt;0&lt;/font&gt;" style="rounded=0;whiteSpace=wrap;html=1;strokeWidth=8;fillColor=#ffffff;fontColor=#ffffff;fontSize=46;" parent="1" vertex="1">
          <mxGeometry x="120" y="350" width="100" height="100" as="geometry" />
        </mxCell>
        <mxCell id="fuDXxDLX_zgl0YoyhHLf-9" value="&lt;font color=&quot;#000000&quot; style=&quot;font-size: 80px;&quot;&gt;0&lt;/font&gt;" style="rounded=0;whiteSpace=wrap;html=1;strokeWidth=8;fillColor=#ffffff;fontColor=#ffffff;fontSize=46;" parent="1" vertex="1">
          <mxGeometry x="20" y="250" width="100" height="100" as="geometry" />
        </mxCell>
        <mxCell id="fuDXxDLX_zgl0YoyhHLf-10" value="&lt;font color=&quot;#000000&quot; style=&quot;font-size: 80px;&quot;&gt;0&lt;/font&gt;" style="rounded=0;whiteSpace=wrap;html=1;strokeWidth=8;fillColor=#ffffff;fontColor=#ffffff;fontSize=46;" parent="1" vertex="1">
          <mxGeometry x="20" y="350" width="100" height="100" as="geometry" />
        </mxCell>
        <mxCell id="fuDXxDLX_zgl0YoyhHLf-11" value="" style="rounded=0;whiteSpace=wrap;html=1;strokeWidth=8;" parent="1" vertex="1">
          <mxGeometry x="330" y="150" width="300" height="300" as="geometry" />
        </mxCell>
        <mxCell id="fuDXxDLX_zgl0YoyhHLf-12" value="&lt;font style=&quot;font-size: 80px;&quot;&gt;1&lt;/font&gt;" style="rounded=0;whiteSpace=wrap;html=1;strokeWidth=8;fillColor=#000000;fontColor=#ffffff;fontSize=46;" parent="1" vertex="1">
          <mxGeometry x="530" y="150" width="100" height="100" as="geometry" />
        </mxCell>
        <mxCell id="fuDXxDLX_zgl0YoyhHLf-13" value="&lt;font style=&quot;font-size: 80px;&quot;&gt;1&lt;/font&gt;" style="rounded=0;whiteSpace=wrap;html=1;strokeWidth=8;fillColor=#000000;fontColor=#ffffff;fontSize=46;" parent="1" vertex="1">
          <mxGeometry x="430" y="250" width="100" height="100" as="geometry" />
        </mxCell>
        <mxCell id="fuDXxDLX_zgl0YoyhHLf-14" value="&lt;font style=&quot;font-size: 80px;&quot;&gt;1&lt;/font&gt;" style="rounded=0;whiteSpace=wrap;html=1;strokeWidth=8;fillColor=#000000;fontColor=#ffffff;fontSize=46;" parent="1" vertex="1">
          <mxGeometry x="330" y="350" width="100" height="100" as="geometry" />
        </mxCell>
        <mxCell id="fuDXxDLX_zgl0YoyhHLf-15" value="&lt;font color=&quot;#000000&quot; style=&quot;font-size: 80px;&quot;&gt;0&lt;/font&gt;" style="rounded=0;whiteSpace=wrap;html=1;strokeWidth=8;fillColor=#ffffff;fontColor=#ffffff;fontSize=46;" parent="1" vertex="1">
          <mxGeometry x="330" y="150" width="100" height="100" as="geometry" />
        </mxCell>
        <mxCell id="fuDXxDLX_zgl0YoyhHLf-16" value="&lt;font color=&quot;#000000&quot; style=&quot;font-size: 80px;&quot;&gt;0&lt;/font&gt;" style="rounded=0;whiteSpace=wrap;html=1;strokeWidth=8;fillColor=#ffffff;fontColor=#ffffff;fontSize=46;" parent="1" vertex="1">
          <mxGeometry x="430" y="150" width="100" height="100" as="geometry" />
        </mxCell>
        <mxCell id="fuDXxDLX_zgl0YoyhHLf-17" value="&lt;font color=&quot;#000000&quot; style=&quot;font-size: 80px;&quot;&gt;0&lt;/font&gt;" style="rounded=0;whiteSpace=wrap;html=1;strokeWidth=8;fillColor=#ffffff;fontColor=#ffffff;fontSize=46;" parent="1" vertex="1">
          <mxGeometry x="530" y="250" width="100" height="100" as="geometry" />
        </mxCell>
        <mxCell id="fuDXxDLX_zgl0YoyhHLf-18" value="&lt;font color=&quot;#000000&quot; style=&quot;font-size: 80px;&quot;&gt;0&lt;/font&gt;" style="rounded=0;whiteSpace=wrap;html=1;strokeWidth=8;fillColor=#ffffff;fontColor=#ffffff;fontSize=46;" parent="1" vertex="1">
          <mxGeometry x="430" y="350" width="100" height="100" as="geometry" />
        </mxCell>
        <mxCell id="fuDXxDLX_zgl0YoyhHLf-19" value="&lt;font color=&quot;#000000&quot; style=&quot;font-size: 80px;&quot;&gt;0&lt;/font&gt;" style="rounded=0;whiteSpace=wrap;html=1;strokeWidth=8;fillColor=#ffffff;fontColor=#ffffff;fontSize=46;" parent="1" vertex="1">
          <mxGeometry x="330" y="250" width="100" height="100" as="geometry" />
        </mxCell>
        <mxCell id="fuDXxDLX_zgl0YoyhHLf-20" value="&lt;font color=&quot;#000000&quot; style=&quot;font-size: 80px;&quot;&gt;0&lt;/font&gt;" style="rounded=0;whiteSpace=wrap;html=1;strokeWidth=8;fillColor=#ffffff;fontColor=#ffffff;fontSize=46;" parent="1" vertex="1">
          <mxGeometry x="530" y="350" width="100" height="100" as="geometry" />
        </mxCell>
        <mxCell id="fuDXxDLX_zgl0YoyhHLf-21" value="" style="rounded=0;whiteSpace=wrap;html=1;strokeWidth=8;" parent="1" vertex="1">
          <mxGeometry x="640" y="150" width="300" height="300" as="geometry" />
        </mxCell>
        <mxCell id="fuDXxDLX_zgl0YoyhHLf-22" value="&lt;font style=&quot;font-size: 80px;&quot;&gt;1&lt;/font&gt;" style="rounded=0;whiteSpace=wrap;html=1;strokeWidth=8;fillColor=#000000;fontColor=#ffffff;fontSize=46;" parent="1" vertex="1">
          <mxGeometry x="640" y="250" width="100" height="100" as="geometry" />
        </mxCell>
        <mxCell id="fuDXxDLX_zgl0YoyhHLf-23" value="&lt;font style=&quot;font-size: 80px;&quot;&gt;1&lt;/font&gt;" style="rounded=0;whiteSpace=wrap;html=1;strokeWidth=8;fillColor=#000000;fontColor=#ffffff;fontSize=46;" parent="1" vertex="1">
          <mxGeometry x="740" y="250" width="100" height="100" as="geometry" />
        </mxCell>
        <mxCell id="fuDXxDLX_zgl0YoyhHLf-24" value="&lt;font style=&quot;font-size: 80px;&quot;&gt;1&lt;/font&gt;" style="rounded=0;whiteSpace=wrap;html=1;strokeWidth=8;fillColor=#000000;fontColor=#ffffff;fontSize=46;" parent="1" vertex="1">
          <mxGeometry x="840" y="250" width="100" height="100" as="geometry" />
        </mxCell>
        <mxCell id="fuDXxDLX_zgl0YoyhHLf-25" value="&lt;font color=&quot;#000000&quot; style=&quot;font-size: 80px;&quot;&gt;0&lt;/font&gt;" style="rounded=0;whiteSpace=wrap;html=1;strokeWidth=8;fillColor=#ffffff;fontColor=#ffffff;fontSize=46;" parent="1" vertex="1">
          <mxGeometry x="840" y="150" width="100" height="100" as="geometry" />
        </mxCell>
        <mxCell id="fuDXxDLX_zgl0YoyhHLf-26" value="&lt;font color=&quot;#000000&quot; style=&quot;font-size: 80px;&quot;&gt;0&lt;/font&gt;" style="rounded=0;whiteSpace=wrap;html=1;strokeWidth=8;fillColor=#ffffff;fontColor=#ffffff;fontSize=46;" parent="1" vertex="1">
          <mxGeometry x="740" y="150" width="100" height="100" as="geometry" />
        </mxCell>
        <mxCell id="fuDXxDLX_zgl0YoyhHLf-27" value="&lt;font color=&quot;#000000&quot; style=&quot;font-size: 80px;&quot;&gt;0&lt;/font&gt;" style="rounded=0;whiteSpace=wrap;html=1;strokeWidth=8;fillColor=#ffffff;fontColor=#ffffff;fontSize=46;" parent="1" vertex="1">
          <mxGeometry x="840" y="350" width="100" height="100" as="geometry" />
        </mxCell>
        <mxCell id="fuDXxDLX_zgl0YoyhHLf-28" value="&lt;font color=&quot;#000000&quot; style=&quot;font-size: 80px;&quot;&gt;0&lt;/font&gt;" style="rounded=0;whiteSpace=wrap;html=1;strokeWidth=8;fillColor=#ffffff;fontColor=#ffffff;fontSize=46;" parent="1" vertex="1">
          <mxGeometry x="740" y="350" width="100" height="100" as="geometry" />
        </mxCell>
        <mxCell id="fuDXxDLX_zgl0YoyhHLf-29" value="&lt;font color=&quot;#000000&quot; style=&quot;font-size: 80px;&quot;&gt;0&lt;/font&gt;" style="rounded=0;whiteSpace=wrap;html=1;strokeWidth=8;fillColor=#ffffff;fontColor=#ffffff;fontSize=46;" parent="1" vertex="1">
          <mxGeometry x="640" y="150" width="100" height="100" as="geometry" />
        </mxCell>
        <mxCell id="fuDXxDLX_zgl0YoyhHLf-30" value="&lt;font color=&quot;#000000&quot; style=&quot;font-size: 80px;&quot;&gt;0&lt;/font&gt;" style="rounded=0;whiteSpace=wrap;html=1;strokeWidth=8;fillColor=#ffffff;fontColor=#ffffff;fontSize=46;" parent="1" vertex="1">
          <mxGeometry x="640" y="350" width="100" height="100" as="geometry" />
        </mxCell>
        <mxCell id="fuDXxDLX_zgl0YoyhHLf-31" value="" style="rounded=0;whiteSpace=wrap;html=1;strokeWidth=8;" parent="1" vertex="1">
          <mxGeometry x="950" y="150" width="300" height="300" as="geometry" />
        </mxCell>
        <mxCell id="fuDXxDLX_zgl0YoyhHLf-32" value="&lt;font style=&quot;font-size: 80px;&quot;&gt;1&lt;/font&gt;" style="rounded=0;whiteSpace=wrap;html=1;strokeWidth=8;fillColor=#000000;fontColor=#ffffff;fontSize=46;" parent="1" vertex="1">
          <mxGeometry x="1050" y="150" width="100" height="100" as="geometry" />
        </mxCell>
        <mxCell id="fuDXxDLX_zgl0YoyhHLf-33" value="&lt;font style=&quot;font-size: 80px;&quot;&gt;1&lt;/font&gt;" style="rounded=0;whiteSpace=wrap;html=1;strokeWidth=8;fillColor=#000000;fontColor=#ffffff;fontSize=46;" parent="1" vertex="1">
          <mxGeometry x="1050" y="250" width="100" height="100" as="geometry" />
        </mxCell>
        <mxCell id="fuDXxDLX_zgl0YoyhHLf-34" value="&lt;font style=&quot;font-size: 80px;&quot;&gt;1&lt;/font&gt;" style="rounded=0;whiteSpace=wrap;html=1;strokeWidth=8;fillColor=#000000;fontColor=#ffffff;fontSize=46;" parent="1" vertex="1">
          <mxGeometry x="1050" y="350" width="100" height="100" as="geometry" />
        </mxCell>
        <mxCell id="fuDXxDLX_zgl0YoyhHLf-35" value="&lt;font color=&quot;#000000&quot; style=&quot;font-size: 80px;&quot;&gt;0&lt;/font&gt;" style="rounded=0;whiteSpace=wrap;html=1;strokeWidth=8;fillColor=#ffffff;fontColor=#ffffff;fontSize=46;" parent="1" vertex="1">
          <mxGeometry x="1150" y="150" width="100" height="100" as="geometry" />
        </mxCell>
        <mxCell id="fuDXxDLX_zgl0YoyhHLf-36" value="&lt;font color=&quot;#000000&quot; style=&quot;font-size: 80px;&quot;&gt;0&lt;/font&gt;" style="rounded=0;whiteSpace=wrap;html=1;strokeWidth=8;fillColor=#ffffff;fontColor=#ffffff;fontSize=46;" parent="1" vertex="1">
          <mxGeometry x="950" y="150" width="100" height="100" as="geometry" />
        </mxCell>
        <mxCell id="fuDXxDLX_zgl0YoyhHLf-37" value="&lt;font color=&quot;#000000&quot; style=&quot;font-size: 80px;&quot;&gt;0&lt;/font&gt;" style="rounded=0;whiteSpace=wrap;html=1;strokeWidth=8;fillColor=#ffffff;fontColor=#ffffff;fontSize=46;" parent="1" vertex="1">
          <mxGeometry x="1150" y="250" width="100" height="100" as="geometry" />
        </mxCell>
        <mxCell id="fuDXxDLX_zgl0YoyhHLf-38" value="&lt;font color=&quot;#000000&quot; style=&quot;font-size: 80px;&quot;&gt;0&lt;/font&gt;" style="rounded=0;whiteSpace=wrap;html=1;strokeWidth=8;fillColor=#ffffff;fontColor=#ffffff;fontSize=46;" parent="1" vertex="1">
          <mxGeometry x="1150" y="350" width="100" height="100" as="geometry" />
        </mxCell>
        <mxCell id="fuDXxDLX_zgl0YoyhHLf-39" value="&lt;font color=&quot;#000000&quot; style=&quot;font-size: 80px;&quot;&gt;0&lt;/font&gt;" style="rounded=0;whiteSpace=wrap;html=1;strokeWidth=8;fillColor=#ffffff;fontColor=#ffffff;fontSize=46;" parent="1" vertex="1">
          <mxGeometry x="950" y="250" width="100" height="100" as="geometry" />
        </mxCell>
        <mxCell id="fuDXxDLX_zgl0YoyhHLf-40" value="&lt;font color=&quot;#000000&quot; style=&quot;font-size: 80px;&quot;&gt;0&lt;/font&gt;" style="rounded=0;whiteSpace=wrap;html=1;strokeWidth=8;fillColor=#ffffff;fontColor=#ffffff;fontSize=46;" parent="1" vertex="1">
          <mxGeometry x="950" y="350" width="100" height="100" as="geometry" />
        </mxCell>
        <mxCell id="fuDXxDLX_zgl0YoyhHLf-41" value="&lt;font color=&quot;#000000&quot; style=&quot;font-size: 80px;&quot;&gt;0&lt;/font&gt;" style="rounded=0;whiteSpace=wrap;html=1;strokeWidth=8;fillColor=#ffffff;fontColor=#ffffff;fontSize=46;" parent="1" vertex="1">
          <mxGeometry x="120" y="620" width="100" height="100" as="geometry" />
        </mxCell>
        <mxCell id="fuDXxDLX_zgl0YoyhHLf-42" value="&lt;font style=&quot;font-size: 80px;&quot;&gt;1&lt;/font&gt;" style="rounded=0;whiteSpace=wrap;html=1;strokeWidth=8;fillColor=#000000;fontColor=#ffffff;fontSize=46;" parent="1" vertex="1">
          <mxGeometry x="220" y="620" width="100" height="100" as="geometry" />
        </mxCell>
        <mxCell id="fuDXxDLX_zgl0YoyhHLf-43" value="&lt;font style=&quot;font-size: 80px;&quot;&gt;1&lt;/font&gt;" style="rounded=0;whiteSpace=wrap;html=1;strokeWidth=8;fillColor=#000000;fontColor=#ffffff;fontSize=46;" parent="1" vertex="1">
          <mxGeometry x="220" y="720" width="100" height="100" as="geometry" />
        </mxCell>
        <mxCell id="fuDXxDLX_zgl0YoyhHLf-44" value="&lt;font style=&quot;font-size: 80px;&quot;&gt;1&lt;/font&gt;" style="rounded=0;whiteSpace=wrap;html=1;strokeWidth=8;fillColor=#000000;fontColor=#ffffff;fontSize=46;" parent="1" vertex="1">
          <mxGeometry x="220" y="820" width="100" height="100" as="geometry" />
        </mxCell>
        <mxCell id="fuDXxDLX_zgl0YoyhHLf-45" value="&lt;font color=&quot;#000000&quot; style=&quot;font-size: 80px;&quot;&gt;0&lt;/font&gt;" style="rounded=0;whiteSpace=wrap;html=1;strokeWidth=8;fillColor=#ffffff;fontColor=#ffffff;fontSize=46;" parent="1" vertex="1">
          <mxGeometry x="120" y="920" width="100" height="100" as="geometry" />
        </mxCell>
        <mxCell id="fuDXxDLX_zgl0YoyhHLf-46" value="&lt;font style=&quot;font-size: 80px;&quot;&gt;1&lt;/font&gt;" style="rounded=0;whiteSpace=wrap;html=1;strokeWidth=8;fillColor=#000000;fontColor=#ffffff;fontSize=46;" parent="1" vertex="1">
          <mxGeometry x="220" y="920" width="100" height="100" as="geometry" />
        </mxCell>
        <mxCell id="fuDXxDLX_zgl0YoyhHLf-47" value="&lt;font style=&quot;font-size: 80px;&quot;&gt;1&lt;/font&gt;" style="rounded=0;whiteSpace=wrap;html=1;strokeWidth=8;fillColor=#000000;fontColor=#ffffff;fontSize=46;" parent="1" vertex="1">
          <mxGeometry x="220" y="1020" width="100" height="100" as="geometry" />
        </mxCell>
        <mxCell id="fuDXxDLX_zgl0YoyhHLf-49" value="&lt;font style=&quot;font-size: 80px;&quot;&gt;1&lt;/font&gt;" style="rounded=0;whiteSpace=wrap;html=1;strokeWidth=8;fillColor=#000000;fontColor=#ffffff;fontSize=46;" parent="1" vertex="1">
          <mxGeometry x="420" y="920" width="100" height="100" as="geometry" />
        </mxCell>
        <mxCell id="fuDXxDLX_zgl0YoyhHLf-50" value="&lt;font style=&quot;font-size: 80px;&quot;&gt;1&lt;/font&gt;" style="rounded=0;whiteSpace=wrap;html=1;strokeWidth=8;fillColor=#000000;fontColor=#ffffff;fontSize=46;" parent="1" vertex="1">
          <mxGeometry x="420" y="720" width="100" height="100" as="geometry" />
        </mxCell>
        <mxCell id="fuDXxDLX_zgl0YoyhHLf-51" value="&lt;font style=&quot;font-size: 80px;&quot;&gt;1&lt;/font&gt;" style="rounded=0;whiteSpace=wrap;html=1;strokeWidth=8;fillColor=#000000;fontColor=#ffffff;fontSize=46;" parent="1" vertex="1">
          <mxGeometry x="520" y="620" width="100" height="100" as="geometry" />
        </mxCell>
        <mxCell id="fuDXxDLX_zgl0YoyhHLf-52" value="&lt;font style=&quot;font-size: 80px;&quot;&gt;1&lt;/font&gt;" style="rounded=0;whiteSpace=wrap;html=1;strokeWidth=8;fillColor=#000000;fontColor=#ffffff;fontSize=46;" parent="1" vertex="1">
          <mxGeometry x="320" y="820" width="100" height="100" as="geometry" />
        </mxCell>
        <mxCell id="fuDXxDLX_zgl0YoyhHLf-53" value="&lt;font style=&quot;font-size: 80px;&quot;&gt;1&lt;/font&gt;" style="rounded=0;whiteSpace=wrap;html=1;strokeWidth=8;fillColor=#000000;fontColor=#ffffff;fontSize=46;" parent="1" vertex="1">
          <mxGeometry x="520" y="1020" width="100" height="100" as="geometry" />
        </mxCell>
        <mxCell id="fuDXxDLX_zgl0YoyhHLf-54" value="&lt;font color=&quot;#000000&quot; style=&quot;font-size: 80px;&quot;&gt;0&lt;/font&gt;" style="rounded=0;whiteSpace=wrap;html=1;strokeWidth=8;fillColor=#ffffff;fontColor=#ffffff;fontSize=46;" parent="1" vertex="1">
          <mxGeometry x="120" y="720" width="100" height="100" as="geometry" />
        </mxCell>
        <mxCell id="fuDXxDLX_zgl0YoyhHLf-55" value="&lt;font color=&quot;#000000&quot; style=&quot;font-size: 80px;&quot;&gt;0&lt;/font&gt;" style="rounded=0;whiteSpace=wrap;html=1;strokeWidth=8;fillColor=#ffffff;fontColor=#ffffff;fontSize=46;" parent="1" vertex="1">
          <mxGeometry x="120" y="820" width="100" height="100" as="geometry" />
        </mxCell>
        <mxCell id="fuDXxDLX_zgl0YoyhHLf-56" value="&lt;font color=&quot;#000000&quot; style=&quot;font-size: 80px;&quot;&gt;0&lt;/font&gt;" style="rounded=0;whiteSpace=wrap;html=1;strokeWidth=8;fillColor=#ffffff;fontColor=#ffffff;fontSize=46;" parent="1" vertex="1">
          <mxGeometry x="120" y="1019" width="100" height="100" as="geometry" />
        </mxCell>
        <mxCell id="fuDXxDLX_zgl0YoyhHLf-57" value="&lt;font color=&quot;#000000&quot; style=&quot;font-size: 80px;&quot;&gt;0&lt;/font&gt;" style="rounded=0;whiteSpace=wrap;html=1;strokeWidth=8;fillColor=#ffffff;fontColor=#ffffff;fontSize=46;" parent="1" vertex="1">
          <mxGeometry x="320" y="919" width="100" height="100" as="geometry" />
        </mxCell>
        <mxCell id="fuDXxDLX_zgl0YoyhHLf-58" value="&lt;font color=&quot;#000000&quot; style=&quot;font-size: 80px;&quot;&gt;0&lt;/font&gt;" style="rounded=0;whiteSpace=wrap;html=1;strokeWidth=8;fillColor=#ffffff;fontColor=#ffffff;fontSize=46;" parent="1" vertex="1">
          <mxGeometry x="320" y="620" width="100" height="100" as="geometry" />
        </mxCell>
        <mxCell id="fuDXxDLX_zgl0YoyhHLf-59" value="&lt;font color=&quot;#000000&quot; style=&quot;font-size: 80px;&quot;&gt;0&lt;/font&gt;" style="rounded=0;whiteSpace=wrap;html=1;strokeWidth=8;fillColor=#ffffff;fontColor=#ffffff;fontSize=46;" parent="1" vertex="1">
          <mxGeometry x="320" y="719" width="100" height="100" as="geometry" />
        </mxCell>
        <mxCell id="fuDXxDLX_zgl0YoyhHLf-60" value="&lt;font color=&quot;#000000&quot; style=&quot;font-size: 80px;&quot;&gt;0&lt;/font&gt;" style="rounded=0;whiteSpace=wrap;html=1;strokeWidth=8;fillColor=#ffffff;fontColor=#ffffff;fontSize=46;" parent="1" vertex="1">
          <mxGeometry x="420" y="620" width="100" height="100" as="geometry" />
        </mxCell>
        <mxCell id="fuDXxDLX_zgl0YoyhHLf-61" value="&lt;font color=&quot;#000000&quot; style=&quot;font-size: 80px;&quot;&gt;0&lt;/font&gt;" style="rounded=0;whiteSpace=wrap;html=1;strokeWidth=8;fillColor=#ffffff;fontColor=#ffffff;fontSize=46;" parent="1" vertex="1">
          <mxGeometry x="620" y="820" width="100" height="100" as="geometry" />
        </mxCell>
        <mxCell id="fuDXxDLX_zgl0YoyhHLf-62" value="&lt;font color=&quot;#000000&quot; style=&quot;font-size: 80px;&quot;&gt;0&lt;/font&gt;" style="rounded=0;whiteSpace=wrap;html=1;strokeWidth=8;fillColor=#ffffff;fontColor=#ffffff;fontSize=46;" parent="1" vertex="1">
          <mxGeometry x="520" y="820" width="100" height="100" as="geometry" />
        </mxCell>
        <mxCell id="fuDXxDLX_zgl0YoyhHLf-63" value="&lt;font color=&quot;#000000&quot; style=&quot;font-size: 80px;&quot;&gt;0&lt;/font&gt;" style="rounded=0;whiteSpace=wrap;html=1;strokeWidth=8;fillColor=#ffffff;fontColor=#ffffff;fontSize=46;" parent="1" vertex="1">
          <mxGeometry x="420" y="820" width="100" height="100" as="geometry" />
        </mxCell>
        <mxCell id="fuDXxDLX_zgl0YoyhHLf-64" value="&lt;font color=&quot;#000000&quot; style=&quot;font-size: 80px;&quot;&gt;0&lt;/font&gt;" style="rounded=0;whiteSpace=wrap;html=1;strokeWidth=8;fillColor=#ffffff;fontColor=#ffffff;fontSize=46;" parent="1" vertex="1">
          <mxGeometry x="620" y="720" width="100" height="100" as="geometry" />
        </mxCell>
        <mxCell id="fuDXxDLX_zgl0YoyhHLf-65" value="&lt;font color=&quot;#000000&quot; style=&quot;font-size: 80px;&quot;&gt;0&lt;/font&gt;" style="rounded=0;whiteSpace=wrap;html=1;strokeWidth=8;fillColor=#ffffff;fontColor=#ffffff;fontSize=46;" parent="1" vertex="1">
          <mxGeometry x="520" y="720" width="100" height="100" as="geometry" />
        </mxCell>
        <mxCell id="fuDXxDLX_zgl0YoyhHLf-66" value="&lt;font color=&quot;#000000&quot; style=&quot;font-size: 80px;&quot;&gt;0&lt;/font&gt;" style="rounded=0;whiteSpace=wrap;html=1;strokeWidth=8;fillColor=#ffffff;fontColor=#ffffff;fontSize=46;" parent="1" vertex="1">
          <mxGeometry x="620" y="920" width="100" height="100" as="geometry" />
        </mxCell>
        <mxCell id="fuDXxDLX_zgl0YoyhHLf-67" value="&lt;font color=&quot;#000000&quot; style=&quot;font-size: 80px;&quot;&gt;0&lt;/font&gt;" style="rounded=0;whiteSpace=wrap;html=1;strokeWidth=8;fillColor=#ffffff;fontColor=#ffffff;fontSize=46;" parent="1" vertex="1">
          <mxGeometry x="520" y="920" width="100" height="100" as="geometry" />
        </mxCell>
        <mxCell id="fuDXxDLX_zgl0YoyhHLf-68" value="&lt;font color=&quot;#000000&quot; style=&quot;font-size: 80px;&quot;&gt;0&lt;/font&gt;" style="rounded=0;whiteSpace=wrap;html=1;strokeWidth=8;fillColor=#ffffff;fontColor=#ffffff;fontSize=46;" parent="1" vertex="1">
          <mxGeometry x="420" y="1020" width="100" height="100" as="geometry" />
        </mxCell>
        <mxCell id="fuDXxDLX_zgl0YoyhHLf-69" value="&lt;font color=&quot;#000000&quot; style=&quot;font-size: 80px;&quot;&gt;0&lt;/font&gt;" style="rounded=0;whiteSpace=wrap;html=1;strokeWidth=8;fillColor=#ffffff;fontColor=#ffffff;fontSize=46;" parent="1" vertex="1">
          <mxGeometry x="320" y="1020" width="100" height="100" as="geometry" />
        </mxCell>
        <mxCell id="fuDXxDLX_zgl0YoyhHLf-70" value="&lt;font color=&quot;#000000&quot; style=&quot;font-size: 80px;&quot;&gt;0&lt;/font&gt;" style="rounded=0;whiteSpace=wrap;html=1;strokeWidth=8;fillColor=#ffffff;fontColor=#ffffff;fontSize=46;" parent="1" vertex="1">
          <mxGeometry x="620" y="620" width="100" height="100" as="geometry" />
        </mxCell>
        <mxCell id="fuDXxDLX_zgl0YoyhHLf-71" value="&lt;font color=&quot;#000000&quot; style=&quot;font-size: 80px;&quot;&gt;0&lt;/font&gt;" style="rounded=0;whiteSpace=wrap;html=1;strokeWidth=8;fillColor=#ffffff;fontColor=#ffffff;fontSize=46;" parent="1" vertex="1">
          <mxGeometry x="620" y="1020" width="100" height="100" as="geometry" />
        </mxCell>
        <mxCell id="fuDXxDLX_zgl0YoyhHLf-72" value="&lt;font color=&quot;#000000&quot; style=&quot;font-size: 80px;&quot;&gt;0&lt;/font&gt;" style="rounded=0;whiteSpace=wrap;html=1;strokeWidth=8;fillColor=#ffffff;fontColor=#ffffff;fontSize=46;" parent="1" vertex="1">
          <mxGeometry x="320" y="520" width="100" height="100" as="geometry" />
        </mxCell>
        <mxCell id="fuDXxDLX_zgl0YoyhHLf-73" value="&lt;font color=&quot;#000000&quot; style=&quot;font-size: 80px;&quot;&gt;0&lt;/font&gt;" style="rounded=0;whiteSpace=wrap;html=1;strokeWidth=8;fillColor=#ffffff;fontColor=#ffffff;fontSize=46;" parent="1" vertex="1">
          <mxGeometry x="220" y="520" width="100" height="100" as="geometry" />
        </mxCell>
        <mxCell id="fuDXxDLX_zgl0YoyhHLf-74" value="&lt;font color=&quot;#000000&quot; style=&quot;font-size: 80px;&quot;&gt;0&lt;/font&gt;" style="rounded=0;whiteSpace=wrap;html=1;strokeWidth=8;fillColor=#ffffff;fontColor=#ffffff;fontSize=46;" parent="1" vertex="1">
          <mxGeometry x="120" y="520" width="100" height="100" as="geometry" />
        </mxCell>
        <mxCell id="fuDXxDLX_zgl0YoyhHLf-75" value="&lt;font color=&quot;#000000&quot; style=&quot;font-size: 80px;&quot;&gt;0&lt;/font&gt;" style="rounded=0;whiteSpace=wrap;html=1;strokeWidth=8;fillColor=#ffffff;fontColor=#ffffff;fontSize=46;" parent="1" vertex="1">
          <mxGeometry x="620" y="520" width="100" height="100" as="geometry" />
        </mxCell>
        <mxCell id="fuDXxDLX_zgl0YoyhHLf-76" value="&lt;font color=&quot;#000000&quot; style=&quot;font-size: 80px;&quot;&gt;0&lt;/font&gt;" style="rounded=0;whiteSpace=wrap;html=1;strokeWidth=8;fillColor=#ffffff;fontColor=#ffffff;fontSize=46;" parent="1" vertex="1">
          <mxGeometry x="520" y="520" width="100" height="100" as="geometry" />
        </mxCell>
        <mxCell id="fuDXxDLX_zgl0YoyhHLf-77" value="&lt;font color=&quot;#000000&quot; style=&quot;font-size: 80px;&quot;&gt;0&lt;/font&gt;" style="rounded=0;whiteSpace=wrap;html=1;strokeWidth=8;fillColor=#ffffff;fontColor=#ffffff;fontSize=46;" parent="1" vertex="1">
          <mxGeometry x="420" y="520" width="100" height="100" as="geometry" />
        </mxCell>
        <mxCell id="fuDXxDLX_zgl0YoyhHLf-78" value="&lt;font color=&quot;#000000&quot; style=&quot;font-size: 80px;&quot;&gt;0&lt;/font&gt;" style="rounded=0;whiteSpace=wrap;html=1;strokeWidth=8;fillColor=#ffffff;fontColor=#ffffff;fontSize=46;" parent="1" vertex="1">
          <mxGeometry x="320" y="1120" width="100" height="100" as="geometry" />
        </mxCell>
        <mxCell id="fuDXxDLX_zgl0YoyhHLf-79" value="&lt;font color=&quot;#000000&quot; style=&quot;font-size: 80px;&quot;&gt;0&lt;/font&gt;" style="rounded=0;whiteSpace=wrap;html=1;strokeWidth=8;fillColor=#ffffff;fontColor=#ffffff;fontSize=46;" parent="1" vertex="1">
          <mxGeometry x="220" y="1120" width="100" height="100" as="geometry" />
        </mxCell>
        <mxCell id="fuDXxDLX_zgl0YoyhHLf-80" value="&lt;font color=&quot;#000000&quot; style=&quot;font-size: 80px;&quot;&gt;0&lt;/font&gt;" style="rounded=0;whiteSpace=wrap;html=1;strokeWidth=8;fillColor=#ffffff;fontColor=#ffffff;fontSize=46;" parent="1" vertex="1">
          <mxGeometry x="120" y="1120" width="100" height="100" as="geometry" />
        </mxCell>
        <mxCell id="fuDXxDLX_zgl0YoyhHLf-81" value="&lt;font color=&quot;#000000&quot; style=&quot;font-size: 80px;&quot;&gt;0&lt;/font&gt;" style="rounded=0;whiteSpace=wrap;html=1;strokeWidth=8;fillColor=#ffffff;fontColor=#ffffff;fontSize=46;" parent="1" vertex="1">
          <mxGeometry x="620" y="1120" width="100" height="100" as="geometry" />
        </mxCell>
        <mxCell id="fuDXxDLX_zgl0YoyhHLf-82" value="&lt;font color=&quot;#000000&quot; style=&quot;font-size: 80px;&quot;&gt;0&lt;/font&gt;" style="rounded=0;whiteSpace=wrap;html=1;strokeWidth=8;fillColor=#ffffff;fontColor=#ffffff;fontSize=46;" parent="1" vertex="1">
          <mxGeometry x="520" y="1120" width="100" height="100" as="geometry" />
        </mxCell>
        <mxCell id="fuDXxDLX_zgl0YoyhHLf-83" value="&lt;font color=&quot;#000000&quot; style=&quot;font-size: 80px;&quot;&gt;0&lt;/font&gt;" style="rounded=0;whiteSpace=wrap;html=1;strokeWidth=8;fillColor=#ffffff;fontColor=#ffffff;fontSize=46;" parent="1" vertex="1">
          <mxGeometry x="420" y="1120" width="100" height="100" as="geometry" />
        </mxCell>
        <mxCell id="fuDXxDLX_zgl0YoyhHLf-84" value="&lt;font color=&quot;#000000&quot; style=&quot;font-size: 80px;&quot;&gt;0&lt;/font&gt;" style="rounded=0;whiteSpace=wrap;html=1;strokeWidth=8;fillColor=#ffffff;fontColor=#ffffff;fontSize=46;" parent="1" vertex="1">
          <mxGeometry x="20" y="820" width="100" height="100" as="geometry" />
        </mxCell>
        <mxCell id="fuDXxDLX_zgl0YoyhHLf-85" value="&lt;font color=&quot;#000000&quot; style=&quot;font-size: 80px;&quot;&gt;0&lt;/font&gt;" style="rounded=0;whiteSpace=wrap;html=1;strokeWidth=8;fillColor=#ffffff;fontColor=#ffffff;fontSize=46;" parent="1" vertex="1">
          <mxGeometry x="20" y="720" width="100" height="100" as="geometry" />
        </mxCell>
        <mxCell id="fuDXxDLX_zgl0YoyhHLf-86" value="&lt;font color=&quot;#000000&quot; style=&quot;font-size: 80px;&quot;&gt;0&lt;/font&gt;" style="rounded=0;whiteSpace=wrap;html=1;strokeWidth=8;fillColor=#ffffff;fontColor=#ffffff;fontSize=46;" parent="1" vertex="1">
          <mxGeometry x="20" y="920" width="100" height="100" as="geometry" />
        </mxCell>
        <mxCell id="fuDXxDLX_zgl0YoyhHLf-87" value="&lt;font color=&quot;#000000&quot; style=&quot;font-size: 80px;&quot;&gt;0&lt;/font&gt;" style="rounded=0;whiteSpace=wrap;html=1;strokeWidth=8;fillColor=#ffffff;fontColor=#ffffff;fontSize=46;" parent="1" vertex="1">
          <mxGeometry x="20" y="620" width="100" height="100" as="geometry" />
        </mxCell>
        <mxCell id="fuDXxDLX_zgl0YoyhHLf-88" value="&lt;font color=&quot;#000000&quot; style=&quot;font-size: 80px;&quot;&gt;0&lt;/font&gt;" style="rounded=0;whiteSpace=wrap;html=1;strokeWidth=8;fillColor=#ffffff;fontColor=#ffffff;fontSize=46;" parent="1" vertex="1">
          <mxGeometry x="20" y="1020" width="100" height="100" as="geometry" />
        </mxCell>
        <mxCell id="fuDXxDLX_zgl0YoyhHLf-89" value="&lt;font color=&quot;#000000&quot; style=&quot;font-size: 80px;&quot;&gt;0&lt;/font&gt;" style="rounded=0;whiteSpace=wrap;html=1;strokeWidth=8;fillColor=#ffffff;fontColor=#ffffff;fontSize=46;" parent="1" vertex="1">
          <mxGeometry x="20" y="520" width="100" height="100" as="geometry" />
        </mxCell>
        <mxCell id="fuDXxDLX_zgl0YoyhHLf-90" value="&lt;font color=&quot;#000000&quot; style=&quot;font-size: 80px;&quot;&gt;0&lt;/font&gt;" style="rounded=0;whiteSpace=wrap;html=1;strokeWidth=8;fillColor=#ffffff;fontColor=#ffffff;fontSize=46;" parent="1" vertex="1">
          <mxGeometry x="20" y="1120" width="100" height="100" as="geometry" />
        </mxCell>
        <mxCell id="fuDXxDLX_zgl0YoyhHLf-91" value="" style="rounded=0;whiteSpace=wrap;html=1;strokeWidth=8;fillColor=none;fontSize=46;strokeColor=#00ff6e;" parent="1" vertex="1">
          <mxGeometry x="20" y="520" width="300" height="300" as="geometry" />
        </mxCell>
        <mxCell id="fuDXxDLX_zgl0YoyhHLf-102" value="" style="rounded=0;whiteSpace=wrap;html=1;strokeWidth=8;" parent="1" vertex="1">
          <mxGeometry x="1280" y="530" width="300" height="300" as="geometry" />
        </mxCell>
        <mxCell id="fuDXxDLX_zgl0YoyhHLf-103" value="&lt;font style=&quot;font-size: 80px;&quot;&gt;1&lt;/font&gt;" style="rounded=0;whiteSpace=wrap;html=1;strokeWidth=8;fillColor=#ffe6cc;fontSize=46;strokeColor=#d79b00;" parent="1" vertex="1">
          <mxGeometry x="1480" y="530" width="100" height="100" as="geometry" />
        </mxCell>
        <mxCell id="fuDXxDLX_zgl0YoyhHLf-104" value="&lt;font style=&quot;font-size: 80px;&quot;&gt;1&lt;/font&gt;" style="rounded=0;whiteSpace=wrap;html=1;strokeWidth=8;fillColor=#f8cecc;fontSize=46;strokeColor=#b85450;" parent="1" vertex="1">
          <mxGeometry x="1380" y="630" width="100" height="100" as="geometry" />
        </mxCell>
        <mxCell id="fuDXxDLX_zgl0YoyhHLf-105" value="&lt;font style=&quot;font-size: 80px;&quot;&gt;1&lt;/font&gt;" style="rounded=0;whiteSpace=wrap;html=1;strokeWidth=8;fillColor=#60a917;fontColor=#ffffff;fontSize=46;strokeColor=#2D7600;" parent="1" vertex="1">
          <mxGeometry x="1280" y="730" width="100" height="100" as="geometry" />
        </mxCell>
        <mxCell id="fuDXxDLX_zgl0YoyhHLf-106" value="&lt;font color=&quot;#000000&quot; style=&quot;font-size: 80px;&quot;&gt;0&lt;/font&gt;" style="rounded=0;whiteSpace=wrap;html=1;strokeWidth=8;fillColor=#dae8fc;fontSize=46;strokeColor=#6c8ebf;" parent="1" vertex="1">
          <mxGeometry x="1280" y="530" width="100" height="100" as="geometry" />
        </mxCell>
        <mxCell id="fuDXxDLX_zgl0YoyhHLf-107" value="&lt;font color=&quot;#000000&quot; style=&quot;font-size: 80px;&quot;&gt;0&lt;/font&gt;" style="rounded=0;whiteSpace=wrap;html=1;strokeWidth=8;fillColor=#d5e8d4;fontSize=46;strokeColor=#82b366;" parent="1" vertex="1">
          <mxGeometry x="1380" y="530" width="100" height="100" as="geometry" />
        </mxCell>
        <mxCell id="fuDXxDLX_zgl0YoyhHLf-108" value="&lt;font color=&quot;#000000&quot; style=&quot;font-size: 80px;&quot;&gt;0&lt;/font&gt;" style="rounded=0;whiteSpace=wrap;html=1;strokeWidth=8;fillColor=#e1d5e7;fontSize=46;strokeColor=#9673a6;" parent="1" vertex="1">
          <mxGeometry x="1480" y="630" width="100" height="100" as="geometry" />
        </mxCell>
        <mxCell id="fuDXxDLX_zgl0YoyhHLf-109" value="&lt;font color=&quot;#000000&quot; style=&quot;font-size: 80px;&quot;&gt;0&lt;/font&gt;" style="rounded=0;whiteSpace=wrap;html=1;strokeWidth=8;fillColor=#d80073;fontColor=#ffffff;fontSize=46;strokeColor=#A50040;" parent="1" vertex="1">
          <mxGeometry x="1380" y="730" width="100" height="100" as="geometry" />
        </mxCell>
        <mxCell id="fuDXxDLX_zgl0YoyhHLf-110" value="&lt;font color=&quot;#000000&quot; style=&quot;font-size: 80px;&quot;&gt;0&lt;/font&gt;" style="rounded=0;whiteSpace=wrap;html=1;strokeWidth=8;fillColor=#fff2cc;fontSize=46;strokeColor=#d6b656;" parent="1" vertex="1">
          <mxGeometry x="1280" y="630" width="100" height="100" as="geometry" />
        </mxCell>
        <mxCell id="fuDXxDLX_zgl0YoyhHLf-111" value="&lt;font color=&quot;#000000&quot; style=&quot;font-size: 80px;&quot;&gt;0&lt;/font&gt;" style="rounded=0;whiteSpace=wrap;html=1;strokeWidth=8;fillColor=#a20025;fontColor=#ffffff;fontSize=46;strokeColor=#6F0000;" parent="1" vertex="1">
          <mxGeometry x="1480" y="730" width="100" height="100" as="geometry" />
        </mxCell>
        <mxCell id="fuDXxDLX_zgl0YoyhHLf-112" value="&lt;font color=&quot;#000000&quot; style=&quot;font-size: 80px;&quot;&gt;0&lt;/font&gt;" style="rounded=0;whiteSpace=wrap;html=1;strokeWidth=8;fillColor=#f8cecc;fontSize=46;strokeColor=#b85450;" parent="1" vertex="1">
          <mxGeometry x="980" y="630" width="100" height="100" as="geometry" />
        </mxCell>
        <mxCell id="fuDXxDLX_zgl0YoyhHLf-113" value="&lt;font style=&quot;font-size: 80px;&quot;&gt;1&lt;/font&gt;" style="rounded=0;whiteSpace=wrap;html=1;strokeWidth=8;fillColor=#e1d5e7;fontSize=46;strokeColor=#9673a6;" parent="1" vertex="1">
          <mxGeometry x="1080" y="630" width="100" height="100" as="geometry" />
        </mxCell>
        <mxCell id="fuDXxDLX_zgl0YoyhHLf-114" value="&lt;font style=&quot;font-size: 80px;&quot;&gt;1&lt;/font&gt;" style="rounded=0;whiteSpace=wrap;html=1;strokeWidth=8;fillColor=#a20025;fontColor=#ffffff;fontSize=46;strokeColor=#6F0000;" parent="1" vertex="1">
          <mxGeometry x="1080" y="730" width="100" height="100" as="geometry" />
        </mxCell>
        <mxCell id="fuDXxDLX_zgl0YoyhHLf-115" value="&lt;font color=&quot;#000000&quot; style=&quot;font-size: 80px;&quot;&gt;0&lt;/font&gt;" style="rounded=0;whiteSpace=wrap;html=1;strokeWidth=8;fillColor=#d80073;fontColor=#ffffff;fontSize=46;strokeColor=#A50040;" parent="1" vertex="1">
          <mxGeometry x="980" y="730" width="100" height="100" as="geometry" />
        </mxCell>
        <mxCell id="fuDXxDLX_zgl0YoyhHLf-116" value="&lt;font color=&quot;#000000&quot; style=&quot;font-size: 80px;&quot;&gt;0&lt;/font&gt;" style="rounded=0;whiteSpace=wrap;html=1;strokeWidth=8;fillColor=#ffe6cc;fontSize=46;strokeColor=#d79b00;" parent="1" vertex="1">
          <mxGeometry x="1080" y="530" width="100" height="100" as="geometry" />
        </mxCell>
        <mxCell id="fuDXxDLX_zgl0YoyhHLf-117" value="&lt;font color=&quot;#000000&quot; style=&quot;font-size: 80px;&quot;&gt;0&lt;/font&gt;" style="rounded=0;whiteSpace=wrap;html=1;strokeWidth=8;fillColor=#d5e8d4;fontSize=46;strokeColor=#82b366;" parent="1" vertex="1">
          <mxGeometry x="980" y="530" width="100" height="100" as="geometry" />
        </mxCell>
        <mxCell id="fuDXxDLX_zgl0YoyhHLf-118" value="&lt;font color=&quot;#000000&quot; style=&quot;font-size: 80px;&quot;&gt;0&lt;/font&gt;" style="rounded=0;whiteSpace=wrap;html=1;strokeWidth=8;fillColor=#60a917;fontColor=#ffffff;fontSize=46;strokeColor=#2D7600;" parent="1" vertex="1">
          <mxGeometry x="880" y="730" width="100" height="100" as="geometry" />
        </mxCell>
        <mxCell id="fuDXxDLX_zgl0YoyhHLf-119" value="&lt;font color=&quot;#000000&quot; style=&quot;font-size: 80px;&quot;&gt;0&lt;/font&gt;" style="rounded=0;whiteSpace=wrap;html=1;strokeWidth=8;fillColor=#fff2cc;fontSize=46;strokeColor=#d6b656;" parent="1" vertex="1">
          <mxGeometry x="880" y="630" width="100" height="100" as="geometry" />
        </mxCell>
        <mxCell id="fuDXxDLX_zgl0YoyhHLf-120" value="&lt;font color=&quot;#000000&quot; style=&quot;font-size: 80px;&quot;&gt;0&lt;/font&gt;" style="rounded=0;whiteSpace=wrap;html=1;strokeWidth=8;fillColor=#dae8fc;fontSize=46;strokeColor=#6c8ebf;" parent="1" vertex="1">
          <mxGeometry x="880" y="530" width="100" height="100" as="geometry" />
        </mxCell>
        <mxCell id="fuDXxDLX_zgl0YoyhHLf-121" value="" style="rounded=0;whiteSpace=wrap;html=1;strokeWidth=8;fillColor=none;fontSize=46;strokeColor=#00ff6e;" parent="1" vertex="1">
          <mxGeometry x="880" y="530" width="300" height="300" as="geometry" />
        </mxCell>
        <mxCell id="fuDXxDLX_zgl0YoyhHLf-122" value="&lt;h1 style=&quot;&quot;&gt;&lt;font style=&quot;font-size: 80px;&quot;&gt;&lt;sub&gt;*&lt;/sub&gt;&lt;/font&gt;&lt;/h1&gt;" style="rounded=0;whiteSpace=wrap;html=1;strokeWidth=8;fillColor=none;fontColor=#919191;fontSize=46;strokeColor=none;align=center;" parent="1" vertex="1">
          <mxGeometry x="1180" y="630" width="100" height="100" as="geometry" />
        </mxCell>
        <mxCell id="fuDXxDLX_zgl0YoyhHLf-123" value="&lt;h1 style=&quot;&quot;&gt;&lt;font style=&quot;font-size: 80px;&quot;&gt;=&lt;/font&gt;&lt;/h1&gt;" style="rounded=0;whiteSpace=wrap;html=1;strokeWidth=8;fillColor=none;fontColor=#919191;fontSize=46;strokeColor=none;align=center;" parent="1" vertex="1">
          <mxGeometry x="780" y="880" width="100" height="100" as="geometry" />
        </mxCell>
        <mxCell id="fuDXxDLX_zgl0YoyhHLf-124" value="&lt;font color=&quot;#000000&quot; style=&quot;font-size: 80px;&quot;&gt;0&lt;/font&gt;" style="rounded=0;whiteSpace=wrap;html=1;strokeWidth=8;fillColor=#dae8fc;fontSize=46;strokeColor=#6c8ebf;" parent="1" vertex="1">
          <mxGeometry x="880" y="881" width="100" height="100" as="geometry" />
        </mxCell>
        <mxCell id="fuDXxDLX_zgl0YoyhHLf-125" value="&lt;h1 style=&quot;&quot;&gt;&lt;font style=&quot;font-size: 80px;&quot;&gt;+&lt;/font&gt;&lt;/h1&gt;" style="rounded=0;whiteSpace=wrap;html=1;strokeWidth=8;fillColor=none;fontColor=#919191;fontSize=46;strokeColor=none;align=center;" parent="1" vertex="1">
          <mxGeometry x="980" y="881" width="100" height="100" as="geometry" />
        </mxCell>
        <mxCell id="fuDXxDLX_zgl0YoyhHLf-127" value="&lt;font color=&quot;#000000&quot; style=&quot;font-size: 80px;&quot;&gt;0&lt;/font&gt;" style="rounded=0;whiteSpace=wrap;html=1;strokeWidth=8;fillColor=#d5e8d4;fontSize=46;strokeColor=#82b366;" parent="1" vertex="1">
          <mxGeometry x="1080" y="881" width="100" height="100" as="geometry" />
        </mxCell>
        <mxCell id="fuDXxDLX_zgl0YoyhHLf-128" value="&lt;h1 style=&quot;&quot;&gt;&lt;font style=&quot;font-size: 80px;&quot;&gt;+&lt;/font&gt;&lt;/h1&gt;" style="rounded=0;whiteSpace=wrap;html=1;strokeWidth=8;fillColor=none;fontColor=#919191;fontSize=46;strokeColor=none;align=center;" parent="1" vertex="1">
          <mxGeometry x="1180" y="880" width="100" height="100" as="geometry" />
        </mxCell>
        <mxCell id="fuDXxDLX_zgl0YoyhHLf-129" value="&lt;font style=&quot;font-size: 80px;&quot;&gt;0&lt;/font&gt;" style="rounded=0;whiteSpace=wrap;html=1;strokeWidth=8;fillColor=#ffe6cc;fontSize=46;strokeColor=#d79b00;" parent="1" vertex="1">
          <mxGeometry x="1280" y="881" width="100" height="100" as="geometry" />
        </mxCell>
        <mxCell id="fuDXxDLX_zgl0YoyhHLf-131" value="&lt;h1 style=&quot;&quot;&gt;&lt;font style=&quot;font-size: 80px;&quot;&gt;+&lt;/font&gt;&lt;/h1&gt;" style="rounded=0;whiteSpace=wrap;html=1;strokeWidth=8;fillColor=none;fontColor=#919191;fontSize=46;strokeColor=none;align=center;" parent="1" vertex="1">
          <mxGeometry x="1380" y="880" width="100" height="100" as="geometry" />
        </mxCell>
        <mxCell id="fuDXxDLX_zgl0YoyhHLf-132" value="&lt;font color=&quot;#000000&quot; style=&quot;font-size: 80px;&quot;&gt;0&lt;/font&gt;" style="rounded=0;whiteSpace=wrap;html=1;strokeWidth=8;fillColor=#fff2cc;fontSize=46;strokeColor=#d6b656;" parent="1" vertex="1">
          <mxGeometry x="1480" y="881" width="100" height="100" as="geometry" />
        </mxCell>
        <mxCell id="fuDXxDLX_zgl0YoyhHLf-133" value="&lt;h1 style=&quot;&quot;&gt;&lt;font style=&quot;font-size: 80px;&quot;&gt;+&lt;/font&gt;&lt;/h1&gt;" style="rounded=0;whiteSpace=wrap;html=1;strokeWidth=8;fillColor=none;fontColor=#919191;fontSize=46;strokeColor=none;align=center;" parent="1" vertex="1">
          <mxGeometry x="1580" y="881" width="100" height="100" as="geometry" />
        </mxCell>
        <mxCell id="fuDXxDLX_zgl0YoyhHLf-134" value="&lt;font style=&quot;font-size: 80px;&quot;&gt;0&lt;/font&gt;" style="rounded=0;whiteSpace=wrap;html=1;strokeWidth=8;fillColor=#f8cecc;fontSize=46;strokeColor=#b85450;" parent="1" vertex="1">
          <mxGeometry x="1680" y="881" width="100" height="100" as="geometry" />
        </mxCell>
        <mxCell id="fuDXxDLX_zgl0YoyhHLf-135" value="&lt;h1 style=&quot;&quot;&gt;&lt;font style=&quot;font-size: 80px;&quot;&gt;+&lt;/font&gt;&lt;/h1&gt;" style="rounded=0;whiteSpace=wrap;html=1;strokeWidth=8;fillColor=none;fontColor=#919191;fontSize=46;strokeColor=none;align=center;" parent="1" vertex="1">
          <mxGeometry x="1780" y="880" width="100" height="100" as="geometry" />
        </mxCell>
        <mxCell id="fuDXxDLX_zgl0YoyhHLf-136" value="&lt;font style=&quot;font-size: 80px;&quot;&gt;0&lt;/font&gt;" style="rounded=0;whiteSpace=wrap;html=1;strokeWidth=8;fillColor=#e1d5e7;fontSize=46;strokeColor=#9673a6;" parent="1" vertex="1">
          <mxGeometry x="1880" y="881" width="100" height="100" as="geometry" />
        </mxCell>
        <mxCell id="fuDXxDLX_zgl0YoyhHLf-137" value="&lt;font style=&quot;font-size: 80px;&quot;&gt;0&lt;/font&gt;" style="rounded=0;whiteSpace=wrap;html=1;strokeWidth=8;fillColor=#60a917;fontColor=#ffffff;fontSize=46;strokeColor=#2D7600;" parent="1" vertex="1">
          <mxGeometry x="2080" y="881" width="100" height="100" as="geometry" />
        </mxCell>
        <mxCell id="fuDXxDLX_zgl0YoyhHLf-138" value="&lt;h1 style=&quot;&quot;&gt;&lt;font style=&quot;font-size: 80px;&quot;&gt;+&lt;/font&gt;&lt;/h1&gt;" style="rounded=0;whiteSpace=wrap;html=1;strokeWidth=8;fillColor=none;fontColor=#919191;fontSize=46;strokeColor=none;align=center;" parent="1" vertex="1">
          <mxGeometry x="1980" y="880" width="100" height="100" as="geometry" />
        </mxCell>
        <mxCell id="fuDXxDLX_zgl0YoyhHLf-139" value="&lt;h1 style=&quot;&quot;&gt;&lt;font style=&quot;font-size: 80px;&quot;&gt;+&lt;/font&gt;&lt;/h1&gt;" style="rounded=0;whiteSpace=wrap;html=1;strokeWidth=8;fillColor=none;fontColor=#919191;fontSize=46;strokeColor=none;align=center;" parent="1" vertex="1">
          <mxGeometry x="2180" y="880" width="100" height="100" as="geometry" />
        </mxCell>
        <mxCell id="fuDXxDLX_zgl0YoyhHLf-140" value="&lt;font color=&quot;#000000&quot; style=&quot;font-size: 80px;&quot;&gt;0&lt;/font&gt;" style="rounded=0;whiteSpace=wrap;html=1;strokeWidth=8;fillColor=#d80073;fontColor=#ffffff;fontSize=46;strokeColor=#A50040;" parent="1" vertex="1">
          <mxGeometry x="2280" y="880" width="100" height="100" as="geometry" />
        </mxCell>
        <mxCell id="fuDXxDLX_zgl0YoyhHLf-141" value="&lt;font style=&quot;font-size: 80px;&quot;&gt;0&lt;/font&gt;" style="rounded=0;whiteSpace=wrap;html=1;strokeWidth=8;fillColor=#a20025;fontColor=#ffffff;fontSize=46;strokeColor=#6F0000;" parent="1" vertex="1">
          <mxGeometry x="2478" y="880" width="100" height="100" as="geometry" />
        </mxCell>
        <mxCell id="fuDXxDLX_zgl0YoyhHLf-144" value="&lt;h1 style=&quot;&quot;&gt;&lt;font style=&quot;font-size: 80px;&quot;&gt;+&lt;/font&gt;&lt;/h1&gt;" style="rounded=0;whiteSpace=wrap;html=1;strokeWidth=8;fillColor=none;fontColor=#919191;fontSize=46;strokeColor=none;align=center;" parent="1" vertex="1">
          <mxGeometry x="2380" y="880" width="100" height="100" as="geometry" />
        </mxCell>
        <mxCell id="fuDXxDLX_zgl0YoyhHLf-145" value="&lt;h1 style=&quot;&quot;&gt;&lt;font style=&quot;font-size: 80px;&quot;&gt;=&lt;/font&gt;&lt;/h1&gt;" style="rounded=0;whiteSpace=wrap;html=1;strokeWidth=8;fillColor=none;fontColor=#919191;fontSize=46;strokeColor=none;align=center;" parent="1" vertex="1">
          <mxGeometry x="2580" y="880" width="100" height="100" as="geometry" />
        </mxCell>
        <mxCell id="fuDXxDLX_zgl0YoyhHLf-147" value="&lt;font style=&quot;font-size: 80px;&quot;&gt;0&lt;/font&gt;" style="rounded=0;whiteSpace=wrap;html=1;strokeWidth=8;fillColor=none;fontSize=46;strokeColor=#00ff6e;fontColor=#919191;" parent="1" vertex="1">
          <mxGeometry x="2680" y="880" width="100" height="100" as="geometry" />
        </mxCell>
        <mxCell id="fuDXxDLX_zgl0YoyhHLf-148" value="" style="rounded=0;whiteSpace=wrap;html=1;strokeWidth=8;fillColor=none;fontSize=46;strokeColor=#e1ff00;" parent="1" vertex="1">
          <mxGeometry x="420" y="920" width="300" height="300" as="geometry" />
        </mxCell>
        <mxCell id="fuDXxDLX_zgl0YoyhHLf-149" value="&lt;font style=&quot;font-size: 80px;&quot;&gt;1&lt;/font&gt;" style="rounded=0;whiteSpace=wrap;html=1;strokeWidth=8;fillColor=#000000;fontColor=#ffffff;fontSize=46;" parent="1" vertex="1">
          <mxGeometry x="880" y="1051" width="100" height="100" as="geometry" />
        </mxCell>
        <mxCell id="fuDXxDLX_zgl0YoyhHLf-150" value="&lt;font style=&quot;font-size: 80px;&quot;&gt;1&lt;/font&gt;" style="rounded=0;whiteSpace=wrap;html=1;strokeWidth=8;fillColor=#000000;fontColor=#ffffff;fontSize=46;" parent="1" vertex="1">
          <mxGeometry x="980" y="1151" width="100" height="100" as="geometry" />
        </mxCell>
        <mxCell id="fuDXxDLX_zgl0YoyhHLf-151" value="&lt;font color=&quot;#000000&quot; style=&quot;font-size: 80px;&quot;&gt;0&lt;/font&gt;" style="rounded=0;whiteSpace=wrap;html=1;strokeWidth=8;fillColor=#ffffff;fontColor=#ffffff;fontSize=46;" parent="1" vertex="1">
          <mxGeometry x="1080" y="1051" width="100" height="100" as="geometry" />
        </mxCell>
        <mxCell id="fuDXxDLX_zgl0YoyhHLf-152" value="&lt;font color=&quot;#000000&quot; style=&quot;font-size: 80px;&quot;&gt;0&lt;/font&gt;" style="rounded=0;whiteSpace=wrap;html=1;strokeWidth=8;fillColor=#ffffff;fontColor=#ffffff;fontSize=46;" parent="1" vertex="1">
          <mxGeometry x="980" y="1051" width="100" height="100" as="geometry" />
        </mxCell>
        <mxCell id="fuDXxDLX_zgl0YoyhHLf-153" value="&lt;font color=&quot;#000000&quot; style=&quot;font-size: 80px;&quot;&gt;0&lt;/font&gt;" style="rounded=0;whiteSpace=wrap;html=1;strokeWidth=8;fillColor=#ffffff;fontColor=#ffffff;fontSize=46;" parent="1" vertex="1">
          <mxGeometry x="880" y="1151" width="100" height="100" as="geometry" />
        </mxCell>
        <mxCell id="fuDXxDLX_zgl0YoyhHLf-154" value="&lt;font color=&quot;#000000&quot; style=&quot;font-size: 80px;&quot;&gt;0&lt;/font&gt;" style="rounded=0;whiteSpace=wrap;html=1;strokeWidth=8;fillColor=#ffffff;fontColor=#ffffff;fontSize=46;" parent="1" vertex="1">
          <mxGeometry x="1080" y="1151" width="100" height="100" as="geometry" />
        </mxCell>
        <mxCell id="fuDXxDLX_zgl0YoyhHLf-155" value="&lt;font color=&quot;#000000&quot; style=&quot;font-size: 80px;&quot;&gt;0&lt;/font&gt;" style="rounded=0;whiteSpace=wrap;html=1;strokeWidth=8;fillColor=#ffffff;fontColor=#ffffff;fontSize=46;" parent="1" vertex="1">
          <mxGeometry x="1080" y="1251" width="100" height="100" as="geometry" />
        </mxCell>
        <mxCell id="fuDXxDLX_zgl0YoyhHLf-156" value="&lt;font color=&quot;#000000&quot; style=&quot;font-size: 80px;&quot;&gt;0&lt;/font&gt;" style="rounded=0;whiteSpace=wrap;html=1;strokeWidth=8;fillColor=#ffffff;fontColor=#ffffff;fontSize=46;" parent="1" vertex="1">
          <mxGeometry x="980" y="1251" width="100" height="100" as="geometry" />
        </mxCell>
        <mxCell id="fuDXxDLX_zgl0YoyhHLf-157" value="&lt;font color=&quot;#000000&quot; style=&quot;font-size: 80px;&quot;&gt;0&lt;/font&gt;" style="rounded=0;whiteSpace=wrap;html=1;strokeWidth=8;fillColor=#ffffff;fontColor=#ffffff;fontSize=46;" parent="1" vertex="1">
          <mxGeometry x="880" y="1251" width="100" height="100" as="geometry" />
        </mxCell>
        <mxCell id="fuDXxDLX_zgl0YoyhHLf-158" value="" style="rounded=0;whiteSpace=wrap;html=1;strokeWidth=8;fillColor=none;fontSize=46;strokeColor=#e1ff00;" parent="1" vertex="1">
          <mxGeometry x="880" y="1051" width="300" height="300" as="geometry" />
        </mxCell>
        <mxCell id="fuDXxDLX_zgl0YoyhHLf-159" value="" style="rounded=0;whiteSpace=wrap;html=1;strokeWidth=8;" parent="1" vertex="1">
          <mxGeometry x="1280" y="1051" width="300" height="300" as="geometry" />
        </mxCell>
        <mxCell id="fuDXxDLX_zgl0YoyhHLf-160" value="&lt;font style=&quot;font-size: 80px;&quot;&gt;1&lt;/font&gt;" style="rounded=0;whiteSpace=wrap;html=1;strokeWidth=8;fillColor=#ffe6cc;fontSize=46;strokeColor=#d79b00;" parent="1" vertex="1">
          <mxGeometry x="1480" y="1051" width="100" height="100" as="geometry" />
        </mxCell>
        <mxCell id="fuDXxDLX_zgl0YoyhHLf-161" value="&lt;font style=&quot;font-size: 80px;&quot;&gt;1&lt;/font&gt;" style="rounded=0;whiteSpace=wrap;html=1;strokeWidth=8;fillColor=#f8cecc;fontSize=46;strokeColor=#b85450;" parent="1" vertex="1">
          <mxGeometry x="1380" y="1151" width="100" height="100" as="geometry" />
        </mxCell>
        <mxCell id="fuDXxDLX_zgl0YoyhHLf-162" value="&lt;font style=&quot;font-size: 80px;&quot;&gt;1&lt;/font&gt;" style="rounded=0;whiteSpace=wrap;html=1;strokeWidth=8;fillColor=#60a917;fontColor=#ffffff;fontSize=46;strokeColor=#2D7600;" parent="1" vertex="1">
          <mxGeometry x="1280" y="1251" width="100" height="100" as="geometry" />
        </mxCell>
        <mxCell id="fuDXxDLX_zgl0YoyhHLf-163" value="&lt;font color=&quot;#000000&quot; style=&quot;font-size: 80px;&quot;&gt;0&lt;/font&gt;" style="rounded=0;whiteSpace=wrap;html=1;strokeWidth=8;fillColor=#dae8fc;fontSize=46;strokeColor=#6c8ebf;" parent="1" vertex="1">
          <mxGeometry x="1280" y="1051" width="100" height="100" as="geometry" />
        </mxCell>
        <mxCell id="fuDXxDLX_zgl0YoyhHLf-164" value="&lt;font color=&quot;#000000&quot; style=&quot;font-size: 80px;&quot;&gt;0&lt;/font&gt;" style="rounded=0;whiteSpace=wrap;html=1;strokeWidth=8;fillColor=#d5e8d4;fontSize=46;strokeColor=#82b366;" parent="1" vertex="1">
          <mxGeometry x="1380" y="1051" width="100" height="100" as="geometry" />
        </mxCell>
        <mxCell id="fuDXxDLX_zgl0YoyhHLf-165" value="&lt;font color=&quot;#000000&quot; style=&quot;font-size: 80px;&quot;&gt;0&lt;/font&gt;" style="rounded=0;whiteSpace=wrap;html=1;strokeWidth=8;fillColor=#e1d5e7;fontSize=46;strokeColor=#9673a6;" parent="1" vertex="1">
          <mxGeometry x="1480" y="1151" width="100" height="100" as="geometry" />
        </mxCell>
        <mxCell id="fuDXxDLX_zgl0YoyhHLf-166" value="&lt;font color=&quot;#000000&quot; style=&quot;font-size: 80px;&quot;&gt;0&lt;/font&gt;" style="rounded=0;whiteSpace=wrap;html=1;strokeWidth=8;fillColor=#d80073;fontColor=#ffffff;fontSize=46;strokeColor=#A50040;" parent="1" vertex="1">
          <mxGeometry x="1380" y="1251" width="100" height="100" as="geometry" />
        </mxCell>
        <mxCell id="fuDXxDLX_zgl0YoyhHLf-167" value="&lt;font color=&quot;#000000&quot; style=&quot;font-size: 80px;&quot;&gt;0&lt;/font&gt;" style="rounded=0;whiteSpace=wrap;html=1;strokeWidth=8;fillColor=#fff2cc;fontSize=46;strokeColor=#d6b656;" parent="1" vertex="1">
          <mxGeometry x="1280" y="1151" width="100" height="100" as="geometry" />
        </mxCell>
        <mxCell id="fuDXxDLX_zgl0YoyhHLf-168" value="&lt;font color=&quot;#000000&quot; style=&quot;font-size: 80px;&quot;&gt;0&lt;/font&gt;" style="rounded=0;whiteSpace=wrap;html=1;strokeWidth=8;fillColor=#a20025;fontColor=#ffffff;fontSize=46;strokeColor=#6F0000;" parent="1" vertex="1">
          <mxGeometry x="1480" y="1251" width="100" height="100" as="geometry" />
        </mxCell>
        <mxCell id="fuDXxDLX_zgl0YoyhHLf-169" value="&lt;h1 style=&quot;&quot;&gt;&lt;font style=&quot;font-size: 80px;&quot;&gt;&lt;sub&gt;*&lt;/sub&gt;&lt;/font&gt;&lt;/h1&gt;" style="rounded=0;whiteSpace=wrap;html=1;strokeWidth=8;fillColor=none;fontColor=#919191;fontSize=46;strokeColor=none;align=center;" parent="1" vertex="1">
          <mxGeometry x="1180" y="1151" width="100" height="100" as="geometry" />
        </mxCell>
        <mxCell id="fuDXxDLX_zgl0YoyhHLf-170" value="&lt;h1 style=&quot;&quot;&gt;&lt;font style=&quot;font-size: 80px;&quot;&gt;=&lt;/font&gt;&lt;/h1&gt;" style="rounded=0;whiteSpace=wrap;html=1;strokeWidth=8;fillColor=none;fontColor=#919191;fontSize=46;strokeColor=none;align=center;" parent="1" vertex="1">
          <mxGeometry x="780" y="1401" width="100" height="100" as="geometry" />
        </mxCell>
        <mxCell id="fuDXxDLX_zgl0YoyhHLf-171" value="&lt;font color=&quot;#000000&quot; style=&quot;font-size: 80px;&quot;&gt;0&lt;/font&gt;" style="rounded=0;whiteSpace=wrap;html=1;strokeWidth=8;fillColor=#dae8fc;fontSize=46;strokeColor=#6c8ebf;" parent="1" vertex="1">
          <mxGeometry x="880" y="1402" width="100" height="100" as="geometry" />
        </mxCell>
        <mxCell id="fuDXxDLX_zgl0YoyhHLf-172" value="&lt;h1 style=&quot;&quot;&gt;&lt;font style=&quot;font-size: 80px;&quot;&gt;+&lt;/font&gt;&lt;/h1&gt;" style="rounded=0;whiteSpace=wrap;html=1;strokeWidth=8;fillColor=none;fontColor=#919191;fontSize=46;strokeColor=none;align=center;" parent="1" vertex="1">
          <mxGeometry x="980" y="1402" width="100" height="100" as="geometry" />
        </mxCell>
        <mxCell id="fuDXxDLX_zgl0YoyhHLf-173" value="&lt;font color=&quot;#000000&quot; style=&quot;font-size: 80px;&quot;&gt;0&lt;/font&gt;" style="rounded=0;whiteSpace=wrap;html=1;strokeWidth=8;fillColor=#d5e8d4;fontSize=46;strokeColor=#82b366;" parent="1" vertex="1">
          <mxGeometry x="1080" y="1402" width="100" height="100" as="geometry" />
        </mxCell>
        <mxCell id="fuDXxDLX_zgl0YoyhHLf-174" value="&lt;h1 style=&quot;&quot;&gt;&lt;font style=&quot;font-size: 80px;&quot;&gt;+&lt;/font&gt;&lt;/h1&gt;" style="rounded=0;whiteSpace=wrap;html=1;strokeWidth=8;fillColor=none;fontColor=#919191;fontSize=46;strokeColor=none;align=center;" parent="1" vertex="1">
          <mxGeometry x="1180" y="1401" width="100" height="100" as="geometry" />
        </mxCell>
        <mxCell id="fuDXxDLX_zgl0YoyhHLf-175" value="&lt;font style=&quot;font-size: 80px;&quot;&gt;0&lt;/font&gt;" style="rounded=0;whiteSpace=wrap;html=1;strokeWidth=8;fillColor=#ffe6cc;fontSize=46;strokeColor=#d79b00;" parent="1" vertex="1">
          <mxGeometry x="1280" y="1402" width="100" height="100" as="geometry" />
        </mxCell>
        <mxCell id="fuDXxDLX_zgl0YoyhHLf-176" value="&lt;h1 style=&quot;&quot;&gt;&lt;font style=&quot;font-size: 80px;&quot;&gt;+&lt;/font&gt;&lt;/h1&gt;" style="rounded=0;whiteSpace=wrap;html=1;strokeWidth=8;fillColor=none;fontColor=#919191;fontSize=46;strokeColor=none;align=center;" parent="1" vertex="1">
          <mxGeometry x="1380" y="1401" width="100" height="100" as="geometry" />
        </mxCell>
        <mxCell id="fuDXxDLX_zgl0YoyhHLf-177" value="&lt;font color=&quot;#000000&quot; style=&quot;font-size: 80px;&quot;&gt;0&lt;/font&gt;" style="rounded=0;whiteSpace=wrap;html=1;strokeWidth=8;fillColor=#fff2cc;fontSize=46;strokeColor=#d6b656;" parent="1" vertex="1">
          <mxGeometry x="1480" y="1402" width="100" height="100" as="geometry" />
        </mxCell>
        <mxCell id="fuDXxDLX_zgl0YoyhHLf-178" value="&lt;h1 style=&quot;&quot;&gt;&lt;font style=&quot;font-size: 80px;&quot;&gt;+&lt;/font&gt;&lt;/h1&gt;" style="rounded=0;whiteSpace=wrap;html=1;strokeWidth=8;fillColor=none;fontColor=#919191;fontSize=46;strokeColor=none;align=center;" parent="1" vertex="1">
          <mxGeometry x="1580" y="1402" width="100" height="100" as="geometry" />
        </mxCell>
        <mxCell id="fuDXxDLX_zgl0YoyhHLf-179" value="&lt;font style=&quot;font-size: 80px;&quot;&gt;1&lt;/font&gt;" style="rounded=0;whiteSpace=wrap;html=1;strokeWidth=8;fillColor=#f8cecc;fontSize=46;strokeColor=#b85450;" parent="1" vertex="1">
          <mxGeometry x="1680" y="1402" width="100" height="100" as="geometry" />
        </mxCell>
        <mxCell id="fuDXxDLX_zgl0YoyhHLf-180" value="&lt;h1 style=&quot;&quot;&gt;&lt;font style=&quot;font-size: 80px;&quot;&gt;+&lt;/font&gt;&lt;/h1&gt;" style="rounded=0;whiteSpace=wrap;html=1;strokeWidth=8;fillColor=none;fontColor=#919191;fontSize=46;strokeColor=none;align=center;" parent="1" vertex="1">
          <mxGeometry x="1780" y="1401" width="100" height="100" as="geometry" />
        </mxCell>
        <mxCell id="fuDXxDLX_zgl0YoyhHLf-181" value="&lt;font style=&quot;font-size: 80px;&quot;&gt;0&lt;/font&gt;" style="rounded=0;whiteSpace=wrap;html=1;strokeWidth=8;fillColor=#e1d5e7;fontSize=46;strokeColor=#9673a6;" parent="1" vertex="1">
          <mxGeometry x="1880" y="1402" width="100" height="100" as="geometry" />
        </mxCell>
        <mxCell id="fuDXxDLX_zgl0YoyhHLf-182" value="&lt;font style=&quot;font-size: 80px;&quot;&gt;0&lt;/font&gt;" style="rounded=0;whiteSpace=wrap;html=1;strokeWidth=8;fillColor=#60a917;fontColor=#ffffff;fontSize=46;strokeColor=#2D7600;" parent="1" vertex="1">
          <mxGeometry x="2080" y="1402" width="100" height="100" as="geometry" />
        </mxCell>
        <mxCell id="fuDXxDLX_zgl0YoyhHLf-183" value="&lt;h1 style=&quot;&quot;&gt;&lt;font style=&quot;font-size: 80px;&quot;&gt;+&lt;/font&gt;&lt;/h1&gt;" style="rounded=0;whiteSpace=wrap;html=1;strokeWidth=8;fillColor=none;fontColor=#919191;fontSize=46;strokeColor=none;align=center;" parent="1" vertex="1">
          <mxGeometry x="1980" y="1401" width="100" height="100" as="geometry" />
        </mxCell>
        <mxCell id="fuDXxDLX_zgl0YoyhHLf-184" value="&lt;h1 style=&quot;&quot;&gt;&lt;font style=&quot;font-size: 80px;&quot;&gt;+&lt;/font&gt;&lt;/h1&gt;" style="rounded=0;whiteSpace=wrap;html=1;strokeWidth=8;fillColor=none;fontColor=#919191;fontSize=46;strokeColor=none;align=center;" parent="1" vertex="1">
          <mxGeometry x="2180" y="1401" width="100" height="100" as="geometry" />
        </mxCell>
        <mxCell id="fuDXxDLX_zgl0YoyhHLf-185" value="&lt;font color=&quot;#000000&quot; style=&quot;font-size: 80px;&quot;&gt;0&lt;/font&gt;" style="rounded=0;whiteSpace=wrap;html=1;strokeWidth=8;fillColor=#d80073;fontColor=#ffffff;fontSize=46;strokeColor=#A50040;" parent="1" vertex="1">
          <mxGeometry x="2280" y="1401" width="100" height="100" as="geometry" />
        </mxCell>
        <mxCell id="fuDXxDLX_zgl0YoyhHLf-186" value="&lt;font style=&quot;font-size: 80px;&quot;&gt;0&lt;/font&gt;" style="rounded=0;whiteSpace=wrap;html=1;strokeWidth=8;fillColor=#a20025;fontColor=#ffffff;fontSize=46;strokeColor=#6F0000;" parent="1" vertex="1">
          <mxGeometry x="2478" y="1401" width="100" height="100" as="geometry" />
        </mxCell>
        <mxCell id="fuDXxDLX_zgl0YoyhHLf-187" value="&lt;h1 style=&quot;&quot;&gt;&lt;font style=&quot;font-size: 80px;&quot;&gt;+&lt;/font&gt;&lt;/h1&gt;" style="rounded=0;whiteSpace=wrap;html=1;strokeWidth=8;fillColor=none;fontColor=#919191;fontSize=46;strokeColor=none;align=center;" parent="1" vertex="1">
          <mxGeometry x="2380" y="1401" width="100" height="100" as="geometry" />
        </mxCell>
        <mxCell id="fuDXxDLX_zgl0YoyhHLf-188" value="&lt;h1 style=&quot;&quot;&gt;&lt;font style=&quot;font-size: 80px;&quot;&gt;=&lt;/font&gt;&lt;/h1&gt;" style="rounded=0;whiteSpace=wrap;html=1;strokeWidth=8;fillColor=none;fontColor=#919191;fontSize=46;strokeColor=none;align=center;" parent="1" vertex="1">
          <mxGeometry x="2580" y="1401" width="100" height="100" as="geometry" />
        </mxCell>
        <mxCell id="fuDXxDLX_zgl0YoyhHLf-189" value="&lt;font style=&quot;font-size: 80px;&quot;&gt;1&lt;/font&gt;" style="rounded=0;whiteSpace=wrap;html=1;strokeWidth=8;fillColor=none;fontSize=46;strokeColor=#00ff6e;fontColor=#919191;" parent="1" vertex="1">
          <mxGeometry x="2680" y="1401" width="100" height="100" as="geometry" />
        </mxCell>
        <mxCell id="fuDXxDLX_zgl0YoyhHLf-190" value="" style="rounded=0;whiteSpace=wrap;html=1;strokeWidth=8;" parent="1" vertex="1">
          <mxGeometry x="1280" y="150" width="300" height="300" as="geometry" />
        </mxCell>
        <mxCell id="fuDXxDLX_zgl0YoyhHLf-191" value="&lt;font style=&quot;font-size: 80px;&quot;&gt;1&lt;/font&gt;" style="rounded=0;whiteSpace=wrap;html=1;strokeWidth=8;fillColor=#000000;fontColor=#ffffff;fontSize=46;" parent="1" vertex="1">
          <mxGeometry x="1480" y="150" width="100" height="100" as="geometry" />
        </mxCell>
        <mxCell id="fuDXxDLX_zgl0YoyhHLf-192" value="&lt;font style=&quot;font-size: 80px;&quot;&gt;1&lt;/font&gt;" style="rounded=0;whiteSpace=wrap;html=1;strokeWidth=8;fillColor=#000000;fontColor=#ffffff;fontSize=46;" parent="1" vertex="1">
          <mxGeometry x="1380" y="250" width="100" height="100" as="geometry" />
        </mxCell>
        <mxCell id="fuDXxDLX_zgl0YoyhHLf-193" value="&lt;font style=&quot;font-size: 80px;&quot;&gt;1&lt;/font&gt;" style="rounded=0;whiteSpace=wrap;html=1;strokeWidth=8;fillColor=#000000;fontColor=#ffffff;fontSize=46;" parent="1" vertex="1">
          <mxGeometry x="1280" y="350" width="100" height="100" as="geometry" />
        </mxCell>
        <mxCell id="fuDXxDLX_zgl0YoyhHLf-194" value="&lt;font color=&quot;#000000&quot; style=&quot;font-size: 80px;&quot;&gt;0&lt;/font&gt;" style="rounded=0;whiteSpace=wrap;html=1;strokeWidth=8;fillColor=#ffffff;fontColor=#ffffff;fontSize=46;" parent="1" vertex="1">
          <mxGeometry x="1280" y="150" width="100" height="100" as="geometry" />
        </mxCell>
        <mxCell id="fuDXxDLX_zgl0YoyhHLf-195" value="&lt;font color=&quot;#000000&quot; style=&quot;font-size: 80px;&quot;&gt;0&lt;/font&gt;" style="rounded=0;whiteSpace=wrap;html=1;strokeWidth=8;fillColor=#ffffff;fontColor=#ffffff;fontSize=46;" parent="1" vertex="1">
          <mxGeometry x="1380" y="150" width="100" height="100" as="geometry" />
        </mxCell>
        <mxCell id="fuDXxDLX_zgl0YoyhHLf-196" value="&lt;font color=&quot;#000000&quot; style=&quot;font-size: 80px;&quot;&gt;0&lt;/font&gt;" style="rounded=0;whiteSpace=wrap;html=1;strokeWidth=8;fillColor=#ffffff;fontColor=#ffffff;fontSize=46;" parent="1" vertex="1">
          <mxGeometry x="1480" y="250" width="100" height="100" as="geometry" />
        </mxCell>
        <mxCell id="fuDXxDLX_zgl0YoyhHLf-197" value="&lt;font color=&quot;#000000&quot; style=&quot;font-size: 80px;&quot;&gt;0&lt;/font&gt;" style="rounded=0;whiteSpace=wrap;html=1;strokeWidth=8;fillColor=#ffffff;fontColor=#ffffff;fontSize=46;" parent="1" vertex="1">
          <mxGeometry x="1380" y="350" width="100" height="100" as="geometry" />
        </mxCell>
        <mxCell id="fuDXxDLX_zgl0YoyhHLf-198" value="&lt;font color=&quot;#000000&quot; style=&quot;font-size: 80px;&quot;&gt;0&lt;/font&gt;" style="rounded=0;whiteSpace=wrap;html=1;strokeWidth=8;fillColor=#ffffff;fontColor=#ffffff;fontSize=46;" parent="1" vertex="1">
          <mxGeometry x="1280" y="250" width="100" height="100" as="geometry" />
        </mxCell>
        <mxCell id="fuDXxDLX_zgl0YoyhHLf-199" value="&lt;font color=&quot;#000000&quot; style=&quot;font-size: 80px;&quot;&gt;0&lt;/font&gt;" style="rounded=0;whiteSpace=wrap;html=1;strokeWidth=8;fillColor=#ffffff;fontColor=#ffffff;fontSize=46;" parent="1" vertex="1">
          <mxGeometry x="1480" y="350" width="100" height="100" as="geometry" />
        </mxCell>
        <mxCell id="fuDXxDLX_zgl0YoyhHLf-200" value="" style="shape=flexArrow;endArrow=classic;html=1;rounded=0;strokeWidth=7;" parent="1" edge="1">
          <mxGeometry width="50" height="50" relative="1" as="geometry">
            <mxPoint x="1429.6" y="460" as="sourcePoint" />
            <mxPoint x="1429.6" y="510" as="targetPoint" />
          </mxGeometry>
        </mxCell>
        <mxCell id="fuDXxDLX_zgl0YoyhHLf-202" value="" style="rounded=0;whiteSpace=wrap;html=1;strokeWidth=8;fillColor=none;fontSize=46;strokeColor=#00eeff;" parent="1" vertex="1">
          <mxGeometry x="320" y="619" width="300" height="300" as="geometry" />
        </mxCell>
        <mxCell id="fuDXxDLX_zgl0YoyhHLf-204" value="&lt;font style=&quot;font-size: 80px;&quot;&gt;1&lt;/font&gt;" style="rounded=0;whiteSpace=wrap;html=1;strokeWidth=8;fillColor=#000000;fontColor=#ffffff;fontSize=46;" parent="1" vertex="1">
          <mxGeometry x="980" y="1681" width="100" height="100" as="geometry" />
        </mxCell>
        <mxCell id="fuDXxDLX_zgl0YoyhHLf-205" value="&lt;font style=&quot;font-size: 80px;&quot;&gt;1&lt;/font&gt;" style="rounded=0;whiteSpace=wrap;html=1;strokeWidth=8;fillColor=#000000;fontColor=#ffffff;fontSize=46;" parent="1" vertex="1">
          <mxGeometry x="1080" y="1581" width="100" height="100" as="geometry" />
        </mxCell>
        <mxCell id="fuDXxDLX_zgl0YoyhHLf-206" value="&lt;font style=&quot;font-size: 80px;&quot;&gt;1&lt;/font&gt;" style="rounded=0;whiteSpace=wrap;html=1;strokeWidth=8;fillColor=#000000;fontColor=#ffffff;fontSize=46;" parent="1" vertex="1">
          <mxGeometry x="880" y="1781" width="100" height="100" as="geometry" />
        </mxCell>
        <mxCell id="fuDXxDLX_zgl0YoyhHLf-207" value="&lt;font color=&quot;#000000&quot; style=&quot;font-size: 80px;&quot;&gt;0&lt;/font&gt;" style="rounded=0;whiteSpace=wrap;html=1;strokeWidth=8;fillColor=#ffffff;fontColor=#ffffff;fontSize=46;" parent="1" vertex="1">
          <mxGeometry x="880" y="1581" width="100" height="100" as="geometry" />
        </mxCell>
        <mxCell id="fuDXxDLX_zgl0YoyhHLf-208" value="&lt;font color=&quot;#000000&quot; style=&quot;font-size: 80px;&quot;&gt;0&lt;/font&gt;" style="rounded=0;whiteSpace=wrap;html=1;strokeWidth=8;fillColor=#ffffff;fontColor=#ffffff;fontSize=46;" parent="1" vertex="1">
          <mxGeometry x="880" y="1680" width="100" height="100" as="geometry" />
        </mxCell>
        <mxCell id="fuDXxDLX_zgl0YoyhHLf-209" value="&lt;font color=&quot;#000000&quot; style=&quot;font-size: 80px;&quot;&gt;0&lt;/font&gt;" style="rounded=0;whiteSpace=wrap;html=1;strokeWidth=8;fillColor=#ffffff;fontColor=#ffffff;fontSize=46;" parent="1" vertex="1">
          <mxGeometry x="980" y="1581" width="100" height="100" as="geometry" />
        </mxCell>
        <mxCell id="fuDXxDLX_zgl0YoyhHLf-210" value="&lt;font color=&quot;#000000&quot; style=&quot;font-size: 80px;&quot;&gt;0&lt;/font&gt;" style="rounded=0;whiteSpace=wrap;html=1;strokeWidth=8;fillColor=#ffffff;fontColor=#ffffff;fontSize=46;" parent="1" vertex="1">
          <mxGeometry x="1080" y="1781" width="100" height="100" as="geometry" />
        </mxCell>
        <mxCell id="fuDXxDLX_zgl0YoyhHLf-211" value="&lt;font color=&quot;#000000&quot; style=&quot;font-size: 80px;&quot;&gt;0&lt;/font&gt;" style="rounded=0;whiteSpace=wrap;html=1;strokeWidth=8;fillColor=#ffffff;fontColor=#ffffff;fontSize=46;" parent="1" vertex="1">
          <mxGeometry x="980" y="1781" width="100" height="100" as="geometry" />
        </mxCell>
        <mxCell id="fuDXxDLX_zgl0YoyhHLf-212" value="&lt;font color=&quot;#000000&quot; style=&quot;font-size: 80px;&quot;&gt;0&lt;/font&gt;" style="rounded=0;whiteSpace=wrap;html=1;strokeWidth=8;fillColor=#ffffff;fontColor=#ffffff;fontSize=46;" parent="1" vertex="1">
          <mxGeometry x="1080" y="1681" width="100" height="100" as="geometry" />
        </mxCell>
        <mxCell id="fuDXxDLX_zgl0YoyhHLf-216" value="" style="rounded=0;whiteSpace=wrap;html=1;strokeWidth=8;fillColor=none;fontSize=46;strokeColor=#00eeff;" parent="1" vertex="1">
          <mxGeometry x="880" y="1580" width="300" height="300" as="geometry" />
        </mxCell>
        <mxCell id="fuDXxDLX_zgl0YoyhHLf-217" value="" style="rounded=0;whiteSpace=wrap;html=1;strokeWidth=8;" parent="1" vertex="1">
          <mxGeometry x="1280" y="1581" width="300" height="300" as="geometry" />
        </mxCell>
        <mxCell id="fuDXxDLX_zgl0YoyhHLf-218" value="&lt;font style=&quot;font-size: 80px;&quot;&gt;1&lt;/font&gt;" style="rounded=0;whiteSpace=wrap;html=1;strokeWidth=8;fillColor=#ffe6cc;fontSize=46;strokeColor=#d79b00;" parent="1" vertex="1">
          <mxGeometry x="1480" y="1581" width="100" height="100" as="geometry" />
        </mxCell>
        <mxCell id="fuDXxDLX_zgl0YoyhHLf-219" value="&lt;font style=&quot;font-size: 80px;&quot;&gt;1&lt;/font&gt;" style="rounded=0;whiteSpace=wrap;html=1;strokeWidth=8;fillColor=#f8cecc;fontSize=46;strokeColor=#b85450;" parent="1" vertex="1">
          <mxGeometry x="1380" y="1681" width="100" height="100" as="geometry" />
        </mxCell>
        <mxCell id="fuDXxDLX_zgl0YoyhHLf-220" value="&lt;font style=&quot;font-size: 80px;&quot;&gt;1&lt;/font&gt;" style="rounded=0;whiteSpace=wrap;html=1;strokeWidth=8;fillColor=#60a917;fontColor=#ffffff;fontSize=46;strokeColor=#2D7600;" parent="1" vertex="1">
          <mxGeometry x="1280" y="1781" width="100" height="100" as="geometry" />
        </mxCell>
        <mxCell id="fuDXxDLX_zgl0YoyhHLf-221" value="&lt;font color=&quot;#000000&quot; style=&quot;font-size: 80px;&quot;&gt;0&lt;/font&gt;" style="rounded=0;whiteSpace=wrap;html=1;strokeWidth=8;fillColor=#dae8fc;fontSize=46;strokeColor=#6c8ebf;" parent="1" vertex="1">
          <mxGeometry x="1280" y="1581" width="100" height="100" as="geometry" />
        </mxCell>
        <mxCell id="fuDXxDLX_zgl0YoyhHLf-222" value="&lt;font color=&quot;#000000&quot; style=&quot;font-size: 80px;&quot;&gt;0&lt;/font&gt;" style="rounded=0;whiteSpace=wrap;html=1;strokeWidth=8;fillColor=#d5e8d4;fontSize=46;strokeColor=#82b366;" parent="1" vertex="1">
          <mxGeometry x="1380" y="1581" width="100" height="100" as="geometry" />
        </mxCell>
        <mxCell id="fuDXxDLX_zgl0YoyhHLf-223" value="&lt;font color=&quot;#000000&quot; style=&quot;font-size: 80px;&quot;&gt;0&lt;/font&gt;" style="rounded=0;whiteSpace=wrap;html=1;strokeWidth=8;fillColor=#e1d5e7;fontSize=46;strokeColor=#9673a6;" parent="1" vertex="1">
          <mxGeometry x="1480" y="1681" width="100" height="100" as="geometry" />
        </mxCell>
        <mxCell id="fuDXxDLX_zgl0YoyhHLf-224" value="&lt;font color=&quot;#000000&quot; style=&quot;font-size: 80px;&quot;&gt;0&lt;/font&gt;" style="rounded=0;whiteSpace=wrap;html=1;strokeWidth=8;fillColor=#d80073;fontColor=#ffffff;fontSize=46;strokeColor=#A50040;" parent="1" vertex="1">
          <mxGeometry x="1380" y="1781" width="100" height="100" as="geometry" />
        </mxCell>
        <mxCell id="fuDXxDLX_zgl0YoyhHLf-225" value="&lt;font color=&quot;#000000&quot; style=&quot;font-size: 80px;&quot;&gt;0&lt;/font&gt;" style="rounded=0;whiteSpace=wrap;html=1;strokeWidth=8;fillColor=#fff2cc;fontSize=46;strokeColor=#d6b656;" parent="1" vertex="1">
          <mxGeometry x="1280" y="1681" width="100" height="100" as="geometry" />
        </mxCell>
        <mxCell id="fuDXxDLX_zgl0YoyhHLf-226" value="&lt;font color=&quot;#000000&quot; style=&quot;font-size: 80px;&quot;&gt;0&lt;/font&gt;" style="rounded=0;whiteSpace=wrap;html=1;strokeWidth=8;fillColor=#a20025;fontColor=#ffffff;fontSize=46;strokeColor=#6F0000;" parent="1" vertex="1">
          <mxGeometry x="1480" y="1781" width="100" height="100" as="geometry" />
        </mxCell>
        <mxCell id="fuDXxDLX_zgl0YoyhHLf-227" value="&lt;h1 style=&quot;&quot;&gt;&lt;font style=&quot;font-size: 80px;&quot;&gt;&lt;sub&gt;*&lt;/sub&gt;&lt;/font&gt;&lt;/h1&gt;" style="rounded=0;whiteSpace=wrap;html=1;strokeWidth=8;fillColor=none;fontColor=#919191;fontSize=46;strokeColor=none;align=center;" parent="1" vertex="1">
          <mxGeometry x="1180" y="1681" width="100" height="100" as="geometry" />
        </mxCell>
        <mxCell id="fuDXxDLX_zgl0YoyhHLf-228" value="&lt;h1 style=&quot;&quot;&gt;&lt;font style=&quot;font-size: 80px;&quot;&gt;=&lt;/font&gt;&lt;/h1&gt;" style="rounded=0;whiteSpace=wrap;html=1;strokeWidth=8;fillColor=none;fontColor=#919191;fontSize=46;strokeColor=none;align=center;" parent="1" vertex="1">
          <mxGeometry x="780" y="1920" width="100" height="100" as="geometry" />
        </mxCell>
        <mxCell id="fuDXxDLX_zgl0YoyhHLf-229" value="&lt;font color=&quot;#000000&quot; style=&quot;font-size: 80px;&quot;&gt;0&lt;/font&gt;" style="rounded=0;whiteSpace=wrap;html=1;strokeWidth=8;fillColor=#dae8fc;fontSize=46;strokeColor=#6c8ebf;" parent="1" vertex="1">
          <mxGeometry x="880" y="1921" width="100" height="100" as="geometry" />
        </mxCell>
        <mxCell id="fuDXxDLX_zgl0YoyhHLf-230" value="&lt;h1 style=&quot;&quot;&gt;&lt;font style=&quot;font-size: 80px;&quot;&gt;+&lt;/font&gt;&lt;/h1&gt;" style="rounded=0;whiteSpace=wrap;html=1;strokeWidth=8;fillColor=none;fontColor=#919191;fontSize=46;strokeColor=none;align=center;" parent="1" vertex="1">
          <mxGeometry x="980" y="1921" width="100" height="100" as="geometry" />
        </mxCell>
        <mxCell id="fuDXxDLX_zgl0YoyhHLf-231" value="&lt;font color=&quot;#000000&quot; style=&quot;font-size: 80px;&quot;&gt;0&lt;/font&gt;" style="rounded=0;whiteSpace=wrap;html=1;strokeWidth=8;fillColor=#d5e8d4;fontSize=46;strokeColor=#82b366;" parent="1" vertex="1">
          <mxGeometry x="1080" y="1921" width="100" height="100" as="geometry" />
        </mxCell>
        <mxCell id="fuDXxDLX_zgl0YoyhHLf-232" value="&lt;h1 style=&quot;&quot;&gt;&lt;font style=&quot;font-size: 80px;&quot;&gt;+&lt;/font&gt;&lt;/h1&gt;" style="rounded=0;whiteSpace=wrap;html=1;strokeWidth=8;fillColor=none;fontColor=#919191;fontSize=46;strokeColor=none;align=center;" parent="1" vertex="1">
          <mxGeometry x="1180" y="1920" width="100" height="100" as="geometry" />
        </mxCell>
        <mxCell id="fuDXxDLX_zgl0YoyhHLf-233" value="&lt;font style=&quot;font-size: 80px;&quot;&gt;1&lt;/font&gt;" style="rounded=0;whiteSpace=wrap;html=1;strokeWidth=8;fillColor=#ffe6cc;fontSize=46;strokeColor=#d79b00;" parent="1" vertex="1">
          <mxGeometry x="1280" y="1921" width="100" height="100" as="geometry" />
        </mxCell>
        <mxCell id="fuDXxDLX_zgl0YoyhHLf-234" value="&lt;h1 style=&quot;&quot;&gt;&lt;font style=&quot;font-size: 80px;&quot;&gt;+&lt;/font&gt;&lt;/h1&gt;" style="rounded=0;whiteSpace=wrap;html=1;strokeWidth=8;fillColor=none;fontColor=#919191;fontSize=46;strokeColor=none;align=center;" parent="1" vertex="1">
          <mxGeometry x="1380" y="1920" width="100" height="100" as="geometry" />
        </mxCell>
        <mxCell id="fuDXxDLX_zgl0YoyhHLf-235" value="&lt;font color=&quot;#000000&quot; style=&quot;font-size: 80px;&quot;&gt;0&lt;/font&gt;" style="rounded=0;whiteSpace=wrap;html=1;strokeWidth=8;fillColor=#fff2cc;fontSize=46;strokeColor=#d6b656;" parent="1" vertex="1">
          <mxGeometry x="1480" y="1921" width="100" height="100" as="geometry" />
        </mxCell>
        <mxCell id="fuDXxDLX_zgl0YoyhHLf-236" value="&lt;h1 style=&quot;&quot;&gt;&lt;font style=&quot;font-size: 80px;&quot;&gt;+&lt;/font&gt;&lt;/h1&gt;" style="rounded=0;whiteSpace=wrap;html=1;strokeWidth=8;fillColor=none;fontColor=#919191;fontSize=46;strokeColor=none;align=center;" parent="1" vertex="1">
          <mxGeometry x="1580" y="1921" width="100" height="100" as="geometry" />
        </mxCell>
        <mxCell id="fuDXxDLX_zgl0YoyhHLf-237" value="&lt;font style=&quot;font-size: 80px;&quot;&gt;1&lt;/font&gt;" style="rounded=0;whiteSpace=wrap;html=1;strokeWidth=8;fillColor=#f8cecc;fontSize=46;strokeColor=#b85450;" parent="1" vertex="1">
          <mxGeometry x="1680" y="1921" width="100" height="100" as="geometry" />
        </mxCell>
        <mxCell id="fuDXxDLX_zgl0YoyhHLf-238" value="&lt;h1 style=&quot;&quot;&gt;&lt;font style=&quot;font-size: 80px;&quot;&gt;+&lt;/font&gt;&lt;/h1&gt;" style="rounded=0;whiteSpace=wrap;html=1;strokeWidth=8;fillColor=none;fontColor=#919191;fontSize=46;strokeColor=none;align=center;" parent="1" vertex="1">
          <mxGeometry x="1780" y="1920" width="100" height="100" as="geometry" />
        </mxCell>
        <mxCell id="fuDXxDLX_zgl0YoyhHLf-239" value="&lt;font style=&quot;font-size: 80px;&quot;&gt;0&lt;/font&gt;" style="rounded=0;whiteSpace=wrap;html=1;strokeWidth=8;fillColor=#e1d5e7;fontSize=46;strokeColor=#9673a6;" parent="1" vertex="1">
          <mxGeometry x="1880" y="1921" width="100" height="100" as="geometry" />
        </mxCell>
        <mxCell id="fuDXxDLX_zgl0YoyhHLf-240" value="&lt;font style=&quot;font-size: 80px;&quot;&gt;1&lt;/font&gt;" style="rounded=0;whiteSpace=wrap;html=1;strokeWidth=8;fillColor=#60a917;fontColor=#ffffff;fontSize=46;strokeColor=#2D7600;" parent="1" vertex="1">
          <mxGeometry x="2080" y="1921" width="100" height="100" as="geometry" />
        </mxCell>
        <mxCell id="fuDXxDLX_zgl0YoyhHLf-241" value="&lt;h1 style=&quot;&quot;&gt;&lt;font style=&quot;font-size: 80px;&quot;&gt;+&lt;/font&gt;&lt;/h1&gt;" style="rounded=0;whiteSpace=wrap;html=1;strokeWidth=8;fillColor=none;fontColor=#919191;fontSize=46;strokeColor=none;align=center;" parent="1" vertex="1">
          <mxGeometry x="1980" y="1920" width="100" height="100" as="geometry" />
        </mxCell>
        <mxCell id="fuDXxDLX_zgl0YoyhHLf-242" value="&lt;h1 style=&quot;&quot;&gt;&lt;font style=&quot;font-size: 80px;&quot;&gt;+&lt;/font&gt;&lt;/h1&gt;" style="rounded=0;whiteSpace=wrap;html=1;strokeWidth=8;fillColor=none;fontColor=#919191;fontSize=46;strokeColor=none;align=center;" parent="1" vertex="1">
          <mxGeometry x="2180" y="1920" width="100" height="100" as="geometry" />
        </mxCell>
        <mxCell id="fuDXxDLX_zgl0YoyhHLf-243" value="&lt;font color=&quot;#000000&quot; style=&quot;font-size: 80px;&quot;&gt;0&lt;/font&gt;" style="rounded=0;whiteSpace=wrap;html=1;strokeWidth=8;fillColor=#d80073;fontColor=#ffffff;fontSize=46;strokeColor=#A50040;" parent="1" vertex="1">
          <mxGeometry x="2280" y="1920" width="100" height="100" as="geometry" />
        </mxCell>
        <mxCell id="fuDXxDLX_zgl0YoyhHLf-244" value="&lt;font style=&quot;font-size: 80px;&quot;&gt;0&lt;/font&gt;" style="rounded=0;whiteSpace=wrap;html=1;strokeWidth=8;fillColor=#a20025;fontColor=#ffffff;fontSize=46;strokeColor=#6F0000;" parent="1" vertex="1">
          <mxGeometry x="2478" y="1920" width="100" height="100" as="geometry" />
        </mxCell>
        <mxCell id="fuDXxDLX_zgl0YoyhHLf-245" value="&lt;h1 style=&quot;&quot;&gt;&lt;font style=&quot;font-size: 80px;&quot;&gt;+&lt;/font&gt;&lt;/h1&gt;" style="rounded=0;whiteSpace=wrap;html=1;strokeWidth=8;fillColor=none;fontColor=#919191;fontSize=46;strokeColor=none;align=center;" parent="1" vertex="1">
          <mxGeometry x="2380" y="1920" width="100" height="100" as="geometry" />
        </mxCell>
        <mxCell id="fuDXxDLX_zgl0YoyhHLf-246" value="&lt;h1 style=&quot;&quot;&gt;&lt;font style=&quot;font-size: 80px;&quot;&gt;=&lt;/font&gt;&lt;/h1&gt;" style="rounded=0;whiteSpace=wrap;html=1;strokeWidth=8;fillColor=none;fontColor=#919191;fontSize=46;strokeColor=none;align=center;" parent="1" vertex="1">
          <mxGeometry x="2580" y="1920" width="100" height="100" as="geometry" />
        </mxCell>
        <mxCell id="fuDXxDLX_zgl0YoyhHLf-247" value="&lt;font style=&quot;font-size: 80px;&quot;&gt;3&lt;/font&gt;" style="rounded=0;whiteSpace=wrap;html=1;strokeWidth=8;fillColor=none;fontSize=46;strokeColor=#00ff6e;fontColor=#919191;" parent="1" vertex="1">
          <mxGeometry x="2680" y="1920" width="100" height="100" as="geometry" />
        </mxCell>
        <mxCell id="fuDXxDLX_zgl0YoyhHLf-253" value="" style="curved=1;endArrow=classic;html=1;rounded=0;exitX=0.5;exitY=0;exitDx=0;exitDy=0;entryX=0;entryY=0.5;entryDx=0;entryDy=0;fillColor=#f0a30a;strokeColor=#FF00FF;strokeWidth=5;" parent="1" source="fuDXxDLX_zgl0YoyhHLf-124" target="fuDXxDLX_zgl0YoyhHLf-106" edge="1">
          <mxGeometry width="50" height="50" relative="1" as="geometry">
            <mxPoint x="1280" y="600" as="sourcePoint" />
            <mxPoint x="1330" y="550" as="targetPoint" />
            <Array as="points">
              <mxPoint x="930" y="690" />
              <mxPoint x="1090" y="570" />
            </Array>
          </mxGeometry>
        </mxCell>
        <mxCell id="fuDXxDLX_zgl0YoyhHLf-255" value="" style="curved=1;endArrow=classic;html=1;rounded=0;exitX=0.5;exitY=0;exitDx=0;exitDy=0;fillColor=#f0a30a;strokeColor=#FF00FF;strokeWidth=5;" parent="1" source="fuDXxDLX_zgl0YoyhHLf-127" target="fuDXxDLX_zgl0YoyhHLf-107" edge="1">
          <mxGeometry width="50" height="50" relative="1" as="geometry">
            <mxPoint x="940" y="891" as="sourcePoint" />
            <mxPoint x="1290" y="590" as="targetPoint" />
            <Array as="points">
              <mxPoint x="1130" y="740" />
              <mxPoint x="1230" y="600" />
            </Array>
          </mxGeometry>
        </mxCell>
        <mxCell id="fuDXxDLX_zgl0YoyhHLf-256" value="" style="curved=1;endArrow=classic;html=1;rounded=0;exitX=0.5;exitY=0;exitDx=0;exitDy=0;fillColor=#f0a30a;strokeColor=#FF00FF;strokeWidth=5;" parent="1" target="fuDXxDLX_zgl0YoyhHLf-103" edge="1">
          <mxGeometry width="50" height="50" relative="1" as="geometry">
            <mxPoint x="1330" y="880" as="sourcePoint" />
            <mxPoint x="1580" y="584" as="targetPoint" />
            <Array as="points">
              <mxPoint x="1330" y="739" />
              <mxPoint x="1430" y="599" />
            </Array>
          </mxGeometry>
        </mxCell>
        <mxCell id="fuDXxDLX_zgl0YoyhHLf-257" value="" style="curved=1;endArrow=classic;html=1;rounded=0;exitX=0.5;exitY=0;exitDx=0;exitDy=0;fillColor=#f0a30a;strokeColor=#FF00FF;strokeWidth=5;" parent="1" source="fuDXxDLX_zgl0YoyhHLf-132" target="fuDXxDLX_zgl0YoyhHLf-110" edge="1">
          <mxGeometry width="50" height="50" relative="1" as="geometry">
            <mxPoint x="1150" y="901" as="sourcePoint" />
            <mxPoint x="1400" y="605" as="targetPoint" />
            <Array as="points">
              <mxPoint x="1500" y="810" />
              <mxPoint x="1430" y="730" />
            </Array>
          </mxGeometry>
        </mxCell>
        <mxCell id="fuDXxDLX_zgl0YoyhHLf-258" value="" style="curved=1;endArrow=classic;html=1;rounded=0;fillColor=#f0a30a;strokeColor=#FF00FF;strokeWidth=5;" parent="1" source="fuDXxDLX_zgl0YoyhHLf-134" target="fuDXxDLX_zgl0YoyhHLf-104" edge="1">
          <mxGeometry width="50" height="50" relative="1" as="geometry">
            <mxPoint x="1540" y="891" as="sourcePoint" />
            <mxPoint x="1390" y="715" as="targetPoint" />
            <Array as="points">
              <mxPoint x="1700" y="750" />
              <mxPoint x="1620" y="670" />
            </Array>
          </mxGeometry>
        </mxCell>
        <mxCell id="fuDXxDLX_zgl0YoyhHLf-259" value="" style="curved=1;endArrow=classic;html=1;rounded=0;entryX=1;entryY=0.25;entryDx=0;entryDy=0;fillColor=#f0a30a;strokeColor=#FF00FF;strokeWidth=5;" parent="1" source="fuDXxDLX_zgl0YoyhHLf-136" target="fuDXxDLX_zgl0YoyhHLf-108" edge="1">
          <mxGeometry width="50" height="50" relative="1" as="geometry">
            <mxPoint x="1732" y="891" as="sourcePoint" />
            <mxPoint x="1490" y="687" as="targetPoint" />
            <Array as="points">
              <mxPoint x="1920" y="780" />
              <mxPoint x="1840" y="650" />
            </Array>
          </mxGeometry>
        </mxCell>
        <mxCell id="fuDXxDLX_zgl0YoyhHLf-260" value="" style="curved=1;endArrow=classic;html=1;rounded=0;entryX=0;entryY=0.75;entryDx=0;entryDy=0;fillColor=#f0a30a;strokeColor=#FF00FF;strokeWidth=5;" parent="1" source="fuDXxDLX_zgl0YoyhHLf-137" target="fuDXxDLX_zgl0YoyhHLf-109" edge="1">
          <mxGeometry width="50" height="50" relative="1" as="geometry">
            <mxPoint x="1937" y="891" as="sourcePoint" />
            <mxPoint x="1590" y="665" as="targetPoint" />
            <Array as="points">
              <mxPoint x="1940" y="820" />
              <mxPoint x="1790" y="820" />
            </Array>
          </mxGeometry>
        </mxCell>
        <mxCell id="fuDXxDLX_zgl0YoyhHLf-261" value="" style="curved=1;endArrow=classic;html=1;rounded=0;fillColor=#f0a30a;strokeColor=#FF00FF;strokeWidth=5;" parent="1" source="fuDXxDLX_zgl0YoyhHLf-140" target="fuDXxDLX_zgl0YoyhHLf-109" edge="1">
          <mxGeometry width="50" height="50" relative="1" as="geometry">
            <mxPoint x="2090" y="906" as="sourcePoint" />
            <mxPoint x="1390" y="787" as="targetPoint" />
            <Array as="points">
              <mxPoint x="2180" y="820" />
              <mxPoint x="2050" y="760" />
            </Array>
          </mxGeometry>
        </mxCell>
        <mxCell id="fuDXxDLX_zgl0YoyhHLf-262" value="" style="curved=1;endArrow=classic;html=1;rounded=0;entryX=1;entryY=0.25;entryDx=0;entryDy=0;exitX=0;exitY=0;exitDx=0;exitDy=0;fillColor=#f0a30a;strokeColor=#FF00FF;strokeWidth=5;" parent="1" source="fuDXxDLX_zgl0YoyhHLf-141" target="fuDXxDLX_zgl0YoyhHLf-111" edge="1">
          <mxGeometry width="50" height="50" relative="1" as="geometry">
            <mxPoint x="2290" y="903" as="sourcePoint" />
            <mxPoint x="1490" y="788" as="targetPoint" />
            <Array as="points">
              <mxPoint x="2240" y="750" />
              <mxPoint x="2000" y="740" />
            </Array>
          </mxGeometry>
        </mxCell>
        <mxCell id="fuDXxDLX_zgl0YoyhHLf-263" value="" style="curved=1;endArrow=classic;html=1;rounded=0;entryX=0.5;entryY=0;entryDx=0;entryDy=0;exitX=0.5;exitY=0;exitDx=0;exitDy=0;strokeWidth=6;fillColor=#e51400;strokeColor=#ff00ff;" parent="1" source="fuDXxDLX_zgl0YoyhHLf-16" target="fuDXxDLX_zgl0YoyhHLf-195" edge="1">
          <mxGeometry width="50" height="50" relative="1" as="geometry">
            <mxPoint x="600" y="370" as="sourcePoint" />
            <mxPoint x="650" y="320" as="targetPoint" />
            <Array as="points">
              <mxPoint x="480" y="40" />
              <mxPoint x="1400" y="30" />
            </Array>
          </mxGeometry>
        </mxCell>
        <mxCell id="fuDXxDLX_zgl0YoyhHLf-266" value="&lt;font color=&quot;#000000&quot; style=&quot;font-size: 80px;&quot;&gt;0&lt;/font&gt;" style="rounded=0;whiteSpace=wrap;html=1;strokeWidth=8;fillColor=#FFFFFF;fontColor=#ffffff;fontSize=46;strokeColor=#B20000;" parent="1" vertex="1">
          <mxGeometry x="120" y="1381" width="100" height="100" as="geometry" />
        </mxCell>
        <mxCell id="fuDXxDLX_zgl0YoyhHLf-267" value="&lt;font style=&quot;font-size: 80px;&quot;&gt;1&lt;/font&gt;" style="rounded=0;whiteSpace=wrap;html=1;strokeWidth=8;fillColor=#e59682;fontColor=#ffffff;fontSize=46;strokeColor=#B20000;" parent="1" vertex="1">
          <mxGeometry x="220" y="1381" width="100" height="100" as="geometry" />
        </mxCell>
        <mxCell id="fuDXxDLX_zgl0YoyhHLf-268" value="&lt;font style=&quot;font-size: 80px;&quot;&gt;1&lt;/font&gt;" style="rounded=0;whiteSpace=wrap;html=1;strokeWidth=8;fillColor=#e59682;fontColor=#ffffff;fontSize=46;strokeColor=#B20000;" parent="1" vertex="1">
          <mxGeometry x="220" y="1481" width="100" height="100" as="geometry" />
        </mxCell>
        <mxCell id="fuDXxDLX_zgl0YoyhHLf-269" value="&lt;font style=&quot;font-size: 80px;&quot;&gt;1&lt;/font&gt;" style="rounded=0;whiteSpace=wrap;html=1;strokeWidth=8;fillColor=#e59682;fontColor=#ffffff;fontSize=46;strokeColor=#B20000;" parent="1" vertex="1">
          <mxGeometry x="220" y="1581" width="100" height="100" as="geometry" />
        </mxCell>
        <mxCell id="fuDXxDLX_zgl0YoyhHLf-271" value="&lt;font style=&quot;font-size: 80px;&quot;&gt;2&lt;/font&gt;" style="rounded=0;whiteSpace=wrap;html=1;strokeWidth=8;fillColor=#e51400;fontColor=#ffffff;fontSize=46;strokeColor=#B20000;" parent="1" vertex="1">
          <mxGeometry x="220" y="1681" width="100" height="100" as="geometry" />
        </mxCell>
        <mxCell id="fuDXxDLX_zgl0YoyhHLf-272" value="&lt;font style=&quot;font-size: 80px;&quot;&gt;1&lt;/font&gt;" style="rounded=0;whiteSpace=wrap;html=1;strokeWidth=8;fillColor=#e59682;fontColor=#ffffff;fontSize=46;strokeColor=#B20000;" parent="1" vertex="1">
          <mxGeometry x="220" y="1781" width="100" height="100" as="geometry" />
        </mxCell>
        <mxCell id="fuDXxDLX_zgl0YoyhHLf-273" value="&lt;font style=&quot;font-size: 80px;&quot;&gt;1&lt;/font&gt;" style="rounded=0;whiteSpace=wrap;html=1;strokeWidth=8;fillColor=#e59682;fontColor=#ffffff;fontSize=46;strokeColor=#B20000;" parent="1" vertex="1">
          <mxGeometry x="420" y="1681" width="100" height="100" as="geometry" />
        </mxCell>
        <mxCell id="fuDXxDLX_zgl0YoyhHLf-274" value="&lt;font style=&quot;font-size: 80px;&quot;&gt;3&lt;/font&gt;" style="rounded=0;whiteSpace=wrap;html=1;strokeWidth=8;fillColor=#6E0A00;fontColor=#ffffff;fontSize=46;strokeColor=#B20000;" parent="1" vertex="1">
          <mxGeometry x="420" y="1481" width="100" height="100" as="geometry" />
        </mxCell>
        <mxCell id="fuDXxDLX_zgl0YoyhHLf-275" value="&lt;font style=&quot;font-size: 80px;&quot;&gt;2&lt;/font&gt;" style="rounded=0;whiteSpace=wrap;html=1;strokeWidth=8;fillColor=#e51400;fontColor=#ffffff;fontSize=46;strokeColor=#B20000;" parent="1" vertex="1">
          <mxGeometry x="520" y="1381" width="100" height="100" as="geometry" />
        </mxCell>
        <mxCell id="fuDXxDLX_zgl0YoyhHLf-277" value="&lt;font style=&quot;font-size: 80px;&quot;&gt;1&lt;/font&gt;" style="rounded=0;whiteSpace=wrap;html=1;strokeWidth=8;fillColor=#e59682;fontColor=#ffffff;fontSize=46;strokeColor=#B20000;" parent="1" vertex="1">
          <mxGeometry x="520" y="1781" width="100" height="100" as="geometry" />
        </mxCell>
        <mxCell id="fuDXxDLX_zgl0YoyhHLf-284" value="&lt;font color=&quot;#000000&quot; style=&quot;font-size: 80px;&quot;&gt;0&lt;/font&gt;" style="rounded=0;whiteSpace=wrap;html=1;strokeWidth=8;fillColor=#FFFFFF;fontColor=#ffffff;fontSize=46;strokeColor=#B20000;" parent="1" vertex="1">
          <mxGeometry x="420" y="1381" width="100" height="100" as="geometry" />
        </mxCell>
        <mxCell id="fuDXxDLX_zgl0YoyhHLf-287" value="&lt;font color=&quot;#000000&quot; style=&quot;font-size: 80px;&quot;&gt;0&lt;/font&gt;" style="rounded=0;whiteSpace=wrap;html=1;strokeWidth=8;fillColor=#FFFFFF;fontColor=#ffffff;fontSize=46;strokeColor=#B20000;" parent="1" vertex="1">
          <mxGeometry x="420" y="1581" width="100" height="100" as="geometry" />
        </mxCell>
        <mxCell id="fuDXxDLX_zgl0YoyhHLf-289" value="&lt;font color=&quot;#000000&quot; style=&quot;font-size: 80px;&quot;&gt;0&lt;/font&gt;" style="rounded=0;whiteSpace=wrap;html=1;strokeWidth=8;fillColor=#FFFFFF;fontColor=#ffffff;fontSize=46;strokeColor=#B20000;" parent="1" vertex="1">
          <mxGeometry x="520" y="1481" width="100" height="100" as="geometry" />
        </mxCell>
        <mxCell id="fuDXxDLX_zgl0YoyhHLf-291" value="&lt;font color=&quot;#000000&quot; style=&quot;font-size: 80px;&quot;&gt;0&lt;/font&gt;" style="rounded=0;whiteSpace=wrap;html=1;strokeWidth=8;fillColor=#FFFFFF;fontColor=#ffffff;fontSize=46;strokeColor=#B20000;" parent="1" vertex="1">
          <mxGeometry x="520" y="1681" width="100" height="100" as="geometry" />
        </mxCell>
        <mxCell id="fuDXxDLX_zgl0YoyhHLf-292" value="&lt;font color=&quot;#000000&quot; style=&quot;font-size: 80px;&quot;&gt;0&lt;/font&gt;" style="rounded=0;whiteSpace=wrap;html=1;strokeWidth=8;fillColor=#FFFFFF;fontColor=#ffffff;fontSize=46;strokeColor=#B20000;" parent="1" vertex="1">
          <mxGeometry x="420" y="1781" width="100" height="100" as="geometry" />
        </mxCell>
        <mxCell id="fuDXxDLX_zgl0YoyhHLf-318" value="" style="shape=flexArrow;endArrow=classic;html=1;rounded=0;strokeWidth=7;" parent="1" edge="1">
          <mxGeometry width="50" height="50" relative="1" as="geometry">
            <mxPoint x="369.4699999999999" y="1276" as="sourcePoint" />
            <mxPoint x="369.4699999999999" y="1326" as="targetPoint" />
          </mxGeometry>
        </mxCell>
        <mxCell id="fuDXxDLX_zgl0YoyhHLf-319" value="&lt;font style=&quot;font-size: 80px;&quot;&gt;1&lt;/font&gt;" style="rounded=0;whiteSpace=wrap;html=1;strokeWidth=8;fillColor=#e59682;fontColor=#ffffff;fontSize=46;strokeColor=#B20000;" parent="1" vertex="1">
          <mxGeometry x="320" y="1380" width="100" height="100" as="geometry" />
        </mxCell>
        <mxCell id="fuDXxDLX_zgl0YoyhHLf-320" value="&lt;font style=&quot;font-size: 80px;&quot;&gt;1&lt;/font&gt;" style="rounded=0;whiteSpace=wrap;html=1;strokeWidth=8;fillColor=#e59682;fontColor=#ffffff;fontSize=46;strokeColor=#B20000;" parent="1" vertex="1">
          <mxGeometry x="120" y="1480" width="100" height="100" as="geometry" />
        </mxCell>
        <mxCell id="fuDXxDLX_zgl0YoyhHLf-321" value="&lt;font style=&quot;font-size: 80px;&quot;&gt;1&lt;/font&gt;" style="rounded=0;whiteSpace=wrap;html=1;strokeWidth=8;fillColor=#e59682;fontColor=#ffffff;fontSize=46;strokeColor=#B20000;" parent="1" vertex="1">
          <mxGeometry x="320" y="1480" width="100" height="100" as="geometry" />
        </mxCell>
        <mxCell id="fuDXxDLX_zgl0YoyhHLf-322" value="&lt;font style=&quot;font-size: 80px;&quot;&gt;3&lt;/font&gt;" style="rounded=0;whiteSpace=wrap;html=1;strokeWidth=8;fillColor=#6E0A00;fontColor=#ffffff;fontSize=46;strokeColor=#B20000;" parent="1" vertex="1">
          <mxGeometry x="320" y="1581" width="100" height="100" as="geometry" />
        </mxCell>
        <mxCell id="fuDXxDLX_zgl0YoyhHLf-323" value="&lt;font style=&quot;font-size: 80px;&quot;&gt;1&lt;/font&gt;" style="rounded=0;whiteSpace=wrap;html=1;strokeWidth=8;fillColor=#e59682;fontColor=#ffffff;fontSize=46;strokeColor=#B20000;" parent="1" vertex="1">
          <mxGeometry x="520" y="1581" width="100" height="100" as="geometry" />
        </mxCell>
        <mxCell id="fuDXxDLX_zgl0YoyhHLf-324" value="&lt;font style=&quot;font-size: 80px;&quot;&gt;1&lt;/font&gt;" style="rounded=0;whiteSpace=wrap;html=1;strokeWidth=8;fillColor=#e59682;fontColor=#ffffff;fontSize=46;strokeColor=#B20000;" parent="1" vertex="1">
          <mxGeometry x="120" y="1581" width="100" height="100" as="geometry" />
        </mxCell>
        <mxCell id="fuDXxDLX_zgl0YoyhHLf-325" value="&lt;font style=&quot;font-size: 80px;&quot;&gt;1&lt;/font&gt;" style="rounded=0;whiteSpace=wrap;html=1;strokeWidth=8;fillColor=#e59682;fontColor=#ffffff;fontSize=46;strokeColor=#B20000;" parent="1" vertex="1">
          <mxGeometry x="120" y="1681" width="100" height="100" as="geometry" />
        </mxCell>
        <mxCell id="fuDXxDLX_zgl0YoyhHLf-326" value="&lt;font style=&quot;font-size: 80px;&quot;&gt;1&lt;/font&gt;" style="rounded=0;whiteSpace=wrap;html=1;strokeWidth=8;fillColor=#e59682;fontColor=#ffffff;fontSize=46;strokeColor=#B20000;" parent="1" vertex="1">
          <mxGeometry x="320" y="1681" width="100" height="100" as="geometry" />
        </mxCell>
        <mxCell id="fuDXxDLX_zgl0YoyhHLf-327" value="&lt;font style=&quot;font-size: 80px;&quot;&gt;1&lt;/font&gt;" style="rounded=0;whiteSpace=wrap;html=1;strokeWidth=8;fillColor=#e59682;fontColor=#ffffff;fontSize=46;strokeColor=#B20000;" parent="1" vertex="1">
          <mxGeometry x="120" y="1781" width="100" height="100" as="geometry" />
        </mxCell>
        <mxCell id="fuDXxDLX_zgl0YoyhHLf-328" value="&lt;font style=&quot;font-size: 80px;&quot;&gt;1&lt;/font&gt;" style="rounded=0;whiteSpace=wrap;html=1;strokeWidth=8;fillColor=#e59682;fontColor=#ffffff;fontSize=46;strokeColor=#B20000;" parent="1" vertex="1">
          <mxGeometry x="320" y="1781" width="100" height="100" as="geometry" />
        </mxCell>
        <mxCell id="-rPuN4XOxr21NT2z0Scn-1" value="&lt;font color=&quot;#000000&quot; style=&quot;font-size: 80px;&quot;&gt;0&lt;/font&gt;" style="rounded=0;whiteSpace=wrap;html=1;strokeWidth=8;fillColor=#FFFFFF;fontColor=#ffffff;fontSize=46;strokeColor=#B20000;" vertex="1" parent="1">
          <mxGeometry x="120" y="2502" width="100" height="100" as="geometry" />
        </mxCell>
        <mxCell id="-rPuN4XOxr21NT2z0Scn-2" value="&lt;font style=&quot;font-size: 80px;&quot;&gt;1&lt;/font&gt;" style="rounded=0;whiteSpace=wrap;html=1;strokeWidth=8;fillColor=#e59682;fontColor=#ffffff;fontSize=46;strokeColor=#B20000;" vertex="1" parent="1">
          <mxGeometry x="220" y="2502" width="100" height="100" as="geometry" />
        </mxCell>
        <mxCell id="-rPuN4XOxr21NT2z0Scn-3" value="&lt;font style=&quot;font-size: 80px;&quot;&gt;1&lt;/font&gt;" style="rounded=0;whiteSpace=wrap;html=1;strokeWidth=8;fillColor=#e59682;fontColor=#ffffff;fontSize=46;strokeColor=#B20000;" vertex="1" parent="1">
          <mxGeometry x="220" y="2602" width="100" height="100" as="geometry" />
        </mxCell>
        <mxCell id="-rPuN4XOxr21NT2z0Scn-4" value="&lt;font style=&quot;font-size: 80px;&quot;&gt;1&lt;/font&gt;" style="rounded=0;whiteSpace=wrap;html=1;strokeWidth=8;fillColor=#e59682;fontColor=#ffffff;fontSize=46;strokeColor=#B20000;" vertex="1" parent="1">
          <mxGeometry x="220" y="2702" width="100" height="100" as="geometry" />
        </mxCell>
        <mxCell id="-rPuN4XOxr21NT2z0Scn-5" value="&lt;font style=&quot;font-size: 80px;&quot;&gt;2&lt;/font&gt;" style="rounded=0;whiteSpace=wrap;html=1;strokeWidth=8;fillColor=#e51400;fontColor=#ffffff;fontSize=46;strokeColor=#B20000;" vertex="1" parent="1">
          <mxGeometry x="220" y="2802" width="100" height="100" as="geometry" />
        </mxCell>
        <mxCell id="-rPuN4XOxr21NT2z0Scn-6" value="&lt;font style=&quot;font-size: 80px;&quot;&gt;1&lt;/font&gt;" style="rounded=0;whiteSpace=wrap;html=1;strokeWidth=8;fillColor=#e59682;fontColor=#ffffff;fontSize=46;strokeColor=#B20000;" vertex="1" parent="1">
          <mxGeometry x="220" y="2902" width="100" height="100" as="geometry" />
        </mxCell>
        <mxCell id="-rPuN4XOxr21NT2z0Scn-7" value="&lt;font style=&quot;font-size: 80px;&quot;&gt;1&lt;/font&gt;" style="rounded=0;whiteSpace=wrap;html=1;strokeWidth=8;fillColor=#e59682;fontColor=#ffffff;fontSize=46;strokeColor=#B20000;" vertex="1" parent="1">
          <mxGeometry x="420" y="2802" width="100" height="100" as="geometry" />
        </mxCell>
        <mxCell id="-rPuN4XOxr21NT2z0Scn-8" value="&lt;font style=&quot;font-size: 80px;&quot;&gt;3&lt;/font&gt;" style="rounded=0;whiteSpace=wrap;html=1;strokeWidth=8;fillColor=#6E0A00;fontColor=#ffffff;fontSize=46;strokeColor=#B20000;" vertex="1" parent="1">
          <mxGeometry x="420" y="2602" width="100" height="100" as="geometry" />
        </mxCell>
        <mxCell id="-rPuN4XOxr21NT2z0Scn-9" value="&lt;font style=&quot;font-size: 80px;&quot;&gt;2&lt;/font&gt;" style="rounded=0;whiteSpace=wrap;html=1;strokeWidth=8;fillColor=#e51400;fontColor=#ffffff;fontSize=46;strokeColor=#B20000;" vertex="1" parent="1">
          <mxGeometry x="520" y="2502" width="100" height="100" as="geometry" />
        </mxCell>
        <mxCell id="-rPuN4XOxr21NT2z0Scn-10" value="&lt;font style=&quot;font-size: 80px;&quot;&gt;1&lt;/font&gt;" style="rounded=0;whiteSpace=wrap;html=1;strokeWidth=8;fillColor=#e59682;fontColor=#ffffff;fontSize=46;strokeColor=#B20000;" vertex="1" parent="1">
          <mxGeometry x="520" y="2902" width="100" height="100" as="geometry" />
        </mxCell>
        <mxCell id="-rPuN4XOxr21NT2z0Scn-11" value="&lt;font color=&quot;#000000&quot; style=&quot;font-size: 80px;&quot;&gt;0&lt;/font&gt;" style="rounded=0;whiteSpace=wrap;html=1;strokeWidth=8;fillColor=#FFFFFF;fontColor=#ffffff;fontSize=46;strokeColor=#B20000;" vertex="1" parent="1">
          <mxGeometry x="420" y="2502" width="100" height="100" as="geometry" />
        </mxCell>
        <mxCell id="-rPuN4XOxr21NT2z0Scn-12" value="&lt;font color=&quot;#000000&quot; style=&quot;font-size: 80px;&quot;&gt;0&lt;/font&gt;" style="rounded=0;whiteSpace=wrap;html=1;strokeWidth=8;fillColor=#FFFFFF;fontColor=#ffffff;fontSize=46;strokeColor=#B20000;" vertex="1" parent="1">
          <mxGeometry x="420" y="2702" width="100" height="100" as="geometry" />
        </mxCell>
        <mxCell id="-rPuN4XOxr21NT2z0Scn-13" value="&lt;font color=&quot;#000000&quot; style=&quot;font-size: 80px;&quot;&gt;0&lt;/font&gt;" style="rounded=0;whiteSpace=wrap;html=1;strokeWidth=8;fillColor=#FFFFFF;fontColor=#ffffff;fontSize=46;strokeColor=#B20000;" vertex="1" parent="1">
          <mxGeometry x="520" y="2602" width="100" height="100" as="geometry" />
        </mxCell>
        <mxCell id="-rPuN4XOxr21NT2z0Scn-14" value="&lt;font color=&quot;#000000&quot; style=&quot;font-size: 80px;&quot;&gt;0&lt;/font&gt;" style="rounded=0;whiteSpace=wrap;html=1;strokeWidth=8;fillColor=#FFFFFF;fontColor=#ffffff;fontSize=46;strokeColor=#B20000;" vertex="1" parent="1">
          <mxGeometry x="520" y="2802" width="100" height="100" as="geometry" />
        </mxCell>
        <mxCell id="-rPuN4XOxr21NT2z0Scn-15" value="&lt;font color=&quot;#000000&quot; style=&quot;font-size: 80px;&quot;&gt;0&lt;/font&gt;" style="rounded=0;whiteSpace=wrap;html=1;strokeWidth=8;fillColor=#FFFFFF;fontColor=#ffffff;fontSize=46;strokeColor=#B20000;" vertex="1" parent="1">
          <mxGeometry x="420" y="2902" width="100" height="100" as="geometry" />
        </mxCell>
        <mxCell id="-rPuN4XOxr21NT2z0Scn-16" value="&lt;font style=&quot;font-size: 80px;&quot;&gt;1&lt;/font&gt;" style="rounded=0;whiteSpace=wrap;html=1;strokeWidth=8;fillColor=#e59682;fontColor=#ffffff;fontSize=46;strokeColor=#B20000;" vertex="1" parent="1">
          <mxGeometry x="320" y="2501" width="100" height="100" as="geometry" />
        </mxCell>
        <mxCell id="-rPuN4XOxr21NT2z0Scn-17" value="&lt;font style=&quot;font-size: 80px;&quot;&gt;1&lt;/font&gt;" style="rounded=0;whiteSpace=wrap;html=1;strokeWidth=8;fillColor=#e59682;fontColor=#ffffff;fontSize=46;strokeColor=#B20000;" vertex="1" parent="1">
          <mxGeometry x="120" y="2601" width="100" height="100" as="geometry" />
        </mxCell>
        <mxCell id="-rPuN4XOxr21NT2z0Scn-18" value="&lt;font style=&quot;font-size: 80px;&quot;&gt;1&lt;/font&gt;" style="rounded=0;whiteSpace=wrap;html=1;strokeWidth=8;fillColor=#e59682;fontColor=#ffffff;fontSize=46;strokeColor=#B20000;" vertex="1" parent="1">
          <mxGeometry x="320" y="2601" width="100" height="100" as="geometry" />
        </mxCell>
        <mxCell id="-rPuN4XOxr21NT2z0Scn-19" value="&lt;font style=&quot;font-size: 80px;&quot;&gt;3&lt;/font&gt;" style="rounded=0;whiteSpace=wrap;html=1;strokeWidth=8;fillColor=#6E0A00;fontColor=#ffffff;fontSize=46;strokeColor=#B20000;" vertex="1" parent="1">
          <mxGeometry x="320" y="2702" width="100" height="100" as="geometry" />
        </mxCell>
        <mxCell id="-rPuN4XOxr21NT2z0Scn-20" value="&lt;font style=&quot;font-size: 80px;&quot;&gt;1&lt;/font&gt;" style="rounded=0;whiteSpace=wrap;html=1;strokeWidth=8;fillColor=#e59682;fontColor=#ffffff;fontSize=46;strokeColor=#B20000;" vertex="1" parent="1">
          <mxGeometry x="520" y="2702" width="100" height="100" as="geometry" />
        </mxCell>
        <mxCell id="-rPuN4XOxr21NT2z0Scn-21" value="&lt;font style=&quot;font-size: 80px;&quot;&gt;1&lt;/font&gt;" style="rounded=0;whiteSpace=wrap;html=1;strokeWidth=8;fillColor=#e59682;fontColor=#ffffff;fontSize=46;strokeColor=#B20000;" vertex="1" parent="1">
          <mxGeometry x="120" y="2702" width="100" height="100" as="geometry" />
        </mxCell>
        <mxCell id="-rPuN4XOxr21NT2z0Scn-22" value="&lt;font style=&quot;font-size: 80px;&quot;&gt;1&lt;/font&gt;" style="rounded=0;whiteSpace=wrap;html=1;strokeWidth=8;fillColor=#e59682;fontColor=#ffffff;fontSize=46;strokeColor=#B20000;" vertex="1" parent="1">
          <mxGeometry x="120" y="2802" width="100" height="100" as="geometry" />
        </mxCell>
        <mxCell id="-rPuN4XOxr21NT2z0Scn-23" value="&lt;font style=&quot;font-size: 80px;&quot;&gt;1&lt;/font&gt;" style="rounded=0;whiteSpace=wrap;html=1;strokeWidth=8;fillColor=#e59682;fontColor=#ffffff;fontSize=46;strokeColor=#B20000;" vertex="1" parent="1">
          <mxGeometry x="320" y="2802" width="100" height="100" as="geometry" />
        </mxCell>
        <mxCell id="-rPuN4XOxr21NT2z0Scn-24" value="&lt;font style=&quot;font-size: 80px;&quot;&gt;1&lt;/font&gt;" style="rounded=0;whiteSpace=wrap;html=1;strokeWidth=8;fillColor=#e59682;fontColor=#ffffff;fontSize=46;strokeColor=#B20000;" vertex="1" parent="1">
          <mxGeometry x="120" y="2902" width="100" height="100" as="geometry" />
        </mxCell>
        <mxCell id="-rPuN4XOxr21NT2z0Scn-25" value="&lt;font style=&quot;font-size: 80px;&quot;&gt;1&lt;/font&gt;" style="rounded=0;whiteSpace=wrap;html=1;strokeWidth=8;fillColor=#e59682;fontColor=#ffffff;fontSize=46;strokeColor=#B20000;" vertex="1" parent="1">
          <mxGeometry x="320" y="2902" width="100" height="100" as="geometry" />
        </mxCell>
        <mxCell id="-rPuN4XOxr21NT2z0Scn-27" value="" style="rounded=0;whiteSpace=wrap;html=1;strokeWidth=8;fillColor=none;fontSize=46;strokeColor=#005926;" vertex="1" parent="1">
          <mxGeometry x="220" y="2701" width="200" height="199" as="geometry" />
        </mxCell>
        <mxCell id="-rPuN4XOxr21NT2z0Scn-29" value="" style="rounded=0;whiteSpace=wrap;html=1;strokeWidth=8;fillColor=none;fontSize=46;strokeColor=#008036;" vertex="1" parent="1">
          <mxGeometry x="120" y="2702" width="200" height="199" as="geometry" />
        </mxCell>
        <mxCell id="-rPuN4XOxr21NT2z0Scn-30" value="" style="rounded=0;whiteSpace=wrap;html=1;strokeWidth=8;fillColor=none;fontSize=46;strokeColor=#00A345;" vertex="1" parent="1">
          <mxGeometry x="420" y="2502" width="200" height="199" as="geometry" />
        </mxCell>
        <mxCell id="-rPuN4XOxr21NT2z0Scn-31" value="" style="rounded=0;whiteSpace=wrap;html=1;strokeWidth=8;fillColor=none;fontSize=46;strokeColor=#00CC56;" vertex="1" parent="1">
          <mxGeometry x="320" y="2501" width="200" height="199" as="geometry" />
        </mxCell>
        <mxCell id="-rPuN4XOxr21NT2z0Scn-32" value="" style="rounded=0;whiteSpace=wrap;html=1;strokeWidth=8;fillColor=none;fontSize=46;strokeColor=#00E360;" vertex="1" parent="1">
          <mxGeometry x="220" y="2501" width="200" height="199" as="geometry" />
        </mxCell>
        <mxCell id="-rPuN4XOxr21NT2z0Scn-33" value="" style="rounded=0;whiteSpace=wrap;html=1;strokeWidth=8;fillColor=none;fontSize=46;strokeColor=#00ff6e;" vertex="1" parent="1">
          <mxGeometry x="120" y="2501" width="200" height="199" as="geometry" />
        </mxCell>
        <mxCell id="-rPuN4XOxr21NT2z0Scn-45" value="&lt;font color=&quot;#000000&quot; style=&quot;font-size: 80px;&quot;&gt;0&lt;/font&gt;" style="rounded=0;whiteSpace=wrap;html=1;strokeWidth=8;fillColor=#FFFFFF;fontColor=#ffffff;fontSize=46;strokeColor=#B20000;" vertex="1" parent="1">
          <mxGeometry x="890" y="2431" width="100" height="100" as="geometry" />
        </mxCell>
        <mxCell id="-rPuN4XOxr21NT2z0Scn-46" value="&lt;font style=&quot;font-size: 80px;&quot;&gt;1&lt;/font&gt;" style="rounded=0;whiteSpace=wrap;html=1;strokeWidth=8;fillColor=#e59682;fontColor=#ffffff;fontSize=46;strokeColor=#B20000;" vertex="1" parent="1">
          <mxGeometry x="990" y="2431" width="100" height="100" as="geometry" />
        </mxCell>
        <mxCell id="-rPuN4XOxr21NT2z0Scn-47" value="&lt;font style=&quot;font-size: 80px;&quot;&gt;1&lt;/font&gt;" style="rounded=0;whiteSpace=wrap;html=1;strokeWidth=8;fillColor=#e59682;fontColor=#ffffff;fontSize=46;strokeColor=#B20000;" vertex="1" parent="1">
          <mxGeometry x="990" y="2530" width="100" height="100" as="geometry" />
        </mxCell>
        <mxCell id="-rPuN4XOxr21NT2z0Scn-48" value="&lt;font style=&quot;font-size: 80px;&quot;&gt;1&lt;/font&gt;" style="rounded=0;whiteSpace=wrap;html=1;strokeWidth=8;fillColor=#e59682;fontColor=#ffffff;fontSize=46;strokeColor=#B20000;" vertex="1" parent="1">
          <mxGeometry x="890" y="2530" width="100" height="100" as="geometry" />
        </mxCell>
        <mxCell id="-rPuN4XOxr21NT2z0Scn-49" value="" style="rounded=0;whiteSpace=wrap;html=1;strokeWidth=8;fillColor=none;fontSize=46;strokeColor=#00ff6e;" vertex="1" parent="1">
          <mxGeometry x="890" y="2431" width="200" height="199" as="geometry" />
        </mxCell>
        <mxCell id="-rPuN4XOxr21NT2z0Scn-50" value="&lt;font style=&quot;font-size: 80px;&quot;&gt;1&lt;/font&gt;" style="rounded=0;whiteSpace=wrap;html=1;strokeWidth=8;fillColor=#e59682;fontColor=#ffffff;fontSize=46;strokeColor=#B20000;" vertex="1" parent="1">
          <mxGeometry x="890" y="2671" width="100" height="100" as="geometry" />
        </mxCell>
        <mxCell id="-rPuN4XOxr21NT2z0Scn-51" value="&lt;font style=&quot;font-size: 80px;&quot;&gt;1&lt;/font&gt;" style="rounded=0;whiteSpace=wrap;html=1;strokeWidth=8;fillColor=#e59682;fontColor=#ffffff;fontSize=46;strokeColor=#B20000;" vertex="1" parent="1">
          <mxGeometry x="890" y="2770" width="100" height="100" as="geometry" />
        </mxCell>
        <mxCell id="-rPuN4XOxr21NT2z0Scn-52" value="&lt;font style=&quot;font-size: 80px;&quot;&gt;1&lt;/font&gt;" style="rounded=0;whiteSpace=wrap;html=1;strokeWidth=8;fillColor=#e59682;fontColor=#ffffff;fontSize=46;strokeColor=#B20000;" vertex="1" parent="1">
          <mxGeometry x="990" y="2671" width="100" height="100" as="geometry" />
        </mxCell>
        <mxCell id="-rPuN4XOxr21NT2z0Scn-53" value="&lt;font style=&quot;font-size: 80px;&quot;&gt;1&lt;/font&gt;" style="rounded=0;whiteSpace=wrap;html=1;strokeWidth=8;fillColor=#e59682;fontColor=#ffffff;fontSize=46;strokeColor=#B20000;" vertex="1" parent="1">
          <mxGeometry x="990" y="2770" width="100" height="100" as="geometry" />
        </mxCell>
        <mxCell id="-rPuN4XOxr21NT2z0Scn-54" value="" style="rounded=0;whiteSpace=wrap;html=1;strokeWidth=8;fillColor=none;fontSize=46;strokeColor=#00E360;" vertex="1" parent="1">
          <mxGeometry x="890" y="2671" width="200" height="199" as="geometry" />
        </mxCell>
        <mxCell id="-rPuN4XOxr21NT2z0Scn-56" value="&lt;font style=&quot;font-size: 80px;&quot;&gt;3&lt;/font&gt;" style="rounded=0;whiteSpace=wrap;html=1;strokeWidth=8;fillColor=#6E0A00;fontColor=#ffffff;fontSize=46;strokeColor=#B20000;" vertex="1" parent="1">
          <mxGeometry x="990" y="3010" width="100" height="100" as="geometry" />
        </mxCell>
        <mxCell id="-rPuN4XOxr21NT2z0Scn-57" value="&lt;font color=&quot;#000000&quot; style=&quot;font-size: 80px;&quot;&gt;0&lt;/font&gt;" style="rounded=0;whiteSpace=wrap;html=1;strokeWidth=8;fillColor=#FFFFFF;fontColor=#ffffff;fontSize=46;strokeColor=#B20000;" vertex="1" parent="1">
          <mxGeometry x="990" y="2911" width="100" height="100" as="geometry" />
        </mxCell>
        <mxCell id="-rPuN4XOxr21NT2z0Scn-58" value="&lt;font style=&quot;font-size: 80px;&quot;&gt;1&lt;/font&gt;" style="rounded=0;whiteSpace=wrap;html=1;strokeWidth=8;fillColor=#e59682;fontColor=#ffffff;fontSize=46;strokeColor=#B20000;" vertex="1" parent="1">
          <mxGeometry x="890" y="2911" width="100" height="100" as="geometry" />
        </mxCell>
        <mxCell id="-rPuN4XOxr21NT2z0Scn-59" value="&lt;font style=&quot;font-size: 80px;&quot;&gt;1&lt;/font&gt;" style="rounded=0;whiteSpace=wrap;html=1;strokeWidth=8;fillColor=#e59682;fontColor=#ffffff;fontSize=46;strokeColor=#B20000;" vertex="1" parent="1">
          <mxGeometry x="890" y="3010" width="100" height="100" as="geometry" />
        </mxCell>
        <mxCell id="-rPuN4XOxr21NT2z0Scn-60" value="" style="rounded=0;whiteSpace=wrap;html=1;strokeWidth=8;fillColor=none;fontSize=46;strokeColor=#00CC56;" vertex="1" parent="1">
          <mxGeometry x="890" y="2910" width="200" height="199" as="geometry" />
        </mxCell>
        <mxCell id="-rPuN4XOxr21NT2z0Scn-61" value="" style="curved=1;endArrow=classic;html=1;rounded=0;exitX=0.25;exitY=0;exitDx=0;exitDy=0;entryX=0;entryY=0.25;entryDx=0;entryDy=0;strokeWidth=6;strokeColor=#ff01ff;" edge="1" parent="1" source="-rPuN4XOxr21NT2z0Scn-33" target="-rPuN4XOxr21NT2z0Scn-49">
          <mxGeometry width="50" height="50" relative="1" as="geometry">
            <mxPoint x="730" y="2210" as="sourcePoint" />
            <mxPoint x="780" y="2160" as="targetPoint" />
            <Array as="points">
              <mxPoint x="400" y="2260" />
              <mxPoint x="720" y="2450" />
            </Array>
          </mxGeometry>
        </mxCell>
        <mxCell id="-rPuN4XOxr21NT2z0Scn-62" value="" style="curved=1;endArrow=classic;html=1;rounded=0;exitX=0.75;exitY=0;exitDx=0;exitDy=0;entryX=0;entryY=0.25;entryDx=0;entryDy=0;strokeWidth=6;strokeColor=#ff01ff;" edge="1" parent="1" source="-rPuN4XOxr21NT2z0Scn-33" target="-rPuN4XOxr21NT2z0Scn-54">
          <mxGeometry width="50" height="50" relative="1" as="geometry">
            <mxPoint x="180" y="2511" as="sourcePoint" />
            <mxPoint x="900" y="2491" as="targetPoint" />
            <Array as="points">
              <mxPoint x="460" y="2390" />
              <mxPoint x="730" y="2460" />
            </Array>
          </mxGeometry>
        </mxCell>
        <mxCell id="-rPuN4XOxr21NT2z0Scn-63" value="" style="curved=1;endArrow=classic;html=1;rounded=0;exitX=0.75;exitY=0;exitDx=0;exitDy=0;entryX=0;entryY=0.25;entryDx=0;entryDy=0;strokeWidth=6;strokeColor=#ff01ff;" edge="1" parent="1" source="-rPuN4XOxr21NT2z0Scn-32" target="-rPuN4XOxr21NT2z0Scn-60">
          <mxGeometry width="50" height="50" relative="1" as="geometry">
            <mxPoint x="280" y="2511" as="sourcePoint" />
            <mxPoint x="900" y="2731" as="targetPoint" />
            <Array as="points">
              <mxPoint x="540" y="2460" />
              <mxPoint x="760" y="2540" />
            </Array>
          </mxGeometry>
        </mxCell>
        <mxCell id="-rPuN4XOxr21NT2z0Scn-64" value="" style="shape=flexArrow;endArrow=classic;html=1;rounded=0;strokeWidth=7;fillColor=#919191;strokeColor=#919191;" edge="1" parent="1">
          <mxGeometry width="50" height="50" relative="1" as="geometry">
            <mxPoint x="1140" y="2529.33" as="sourcePoint" />
            <mxPoint x="1241" y="2529.33" as="targetPoint" />
          </mxGeometry>
        </mxCell>
        <mxCell id="-rPuN4XOxr21NT2z0Scn-65" value="" style="shape=flexArrow;endArrow=classic;html=1;rounded=0;strokeWidth=7;fillColor=#919191;strokeColor=#919191;" edge="1" parent="1">
          <mxGeometry width="50" height="50" relative="1" as="geometry">
            <mxPoint x="1140" y="2769.33" as="sourcePoint" />
            <mxPoint x="1241" y="2769.33" as="targetPoint" />
          </mxGeometry>
        </mxCell>
        <mxCell id="-rPuN4XOxr21NT2z0Scn-66" value="" style="shape=flexArrow;endArrow=classic;html=1;rounded=0;strokeWidth=7;fillColor=#919191;strokeColor=#919191;" edge="1" parent="1">
          <mxGeometry width="50" height="50" relative="1" as="geometry">
            <mxPoint x="1140" y="3011" as="sourcePoint" />
            <mxPoint x="1241" y="3011" as="targetPoint" />
          </mxGeometry>
        </mxCell>
        <mxCell id="-rPuN4XOxr21NT2z0Scn-67" value="&lt;font style=&quot;font-size: 80px;&quot;&gt;1&lt;/font&gt;" style="rounded=0;whiteSpace=wrap;html=1;strokeWidth=8;fillColor=none;fontSize=80;strokeColor=#00ff6e;fontColor=#919191;" vertex="1" parent="1">
          <mxGeometry x="1280" y="2480.5" width="100" height="100" as="geometry" />
        </mxCell>
        <mxCell id="-rPuN4XOxr21NT2z0Scn-68" value="1" style="rounded=0;whiteSpace=wrap;html=1;strokeWidth=8;fillColor=none;fontSize=80;strokeColor=#00E360;fontColor=#919191;" vertex="1" parent="1">
          <mxGeometry x="1280" y="2720.5" width="100" height="100" as="geometry" />
        </mxCell>
        <mxCell id="-rPuN4XOxr21NT2z0Scn-69" value="3" style="rounded=0;whiteSpace=wrap;html=1;strokeWidth=8;fillColor=none;fontSize=80;strokeColor=#00CC56;fontColor=#919191;" vertex="1" parent="1">
          <mxGeometry x="1280" y="2959.5" width="100" height="100" as="geometry" />
        </mxCell>
        <mxCell id="-rPuN4XOxr21NT2z0Scn-70" value="" style="shape=flexArrow;endArrow=classic;html=1;rounded=0;strokeWidth=7;endWidth=56.068052930056716;endSize=9.765217391304349;width=16.521739130434785;fillColor=#919191;strokeColor=#919191;" edge="1" parent="1">
          <mxGeometry width="50" height="50" relative="1" as="geometry">
            <mxPoint x="1440" y="2769.13" as="sourcePoint" />
            <mxPoint x="1541" y="2769.13" as="targetPoint" />
          </mxGeometry>
        </mxCell>
        <mxCell id="-rPuN4XOxr21NT2z0Scn-71" value="&lt;font style=&quot;font-size: 80px;&quot;&gt;1&lt;/font&gt;" style="rounded=0;whiteSpace=wrap;html=1;strokeWidth=8;fillColor=none;fontSize=80;strokeColor=#00FF00;fontColor=#919191;" vertex="1" parent="1">
          <mxGeometry x="1610" y="2570.5" width="100" height="100" as="geometry" />
        </mxCell>
        <mxCell id="-rPuN4XOxr21NT2z0Scn-72" value="1" style="rounded=0;whiteSpace=wrap;html=1;strokeWidth=8;fillColor=none;fontSize=80;strokeColor=#00EF00;fontColor=#919191;" vertex="1" parent="1">
          <mxGeometry x="1710" y="2570.5" width="100" height="100" as="geometry" />
        </mxCell>
        <mxCell id="-rPuN4XOxr21NT2z0Scn-73" value="3" style="rounded=0;whiteSpace=wrap;html=1;strokeWidth=8;fillColor=none;fontSize=80;strokeColor=#00DF00;fontColor=#919191;" vertex="1" parent="1">
          <mxGeometry x="1810" y="2570.5" width="100" height="100" as="geometry" />
        </mxCell>
        <mxCell id="-rPuN4XOxr21NT2z0Scn-74" value="3" style="rounded=0;whiteSpace=wrap;html=1;strokeWidth=8;fillColor=none;fontSize=80;strokeColor=#00CF00;fontColor=#919191;" vertex="1" parent="1">
          <mxGeometry x="1910" y="2570.5" width="100" height="100" as="geometry" />
        </mxCell>
        <mxCell id="-rPuN4XOxr21NT2z0Scn-75" value="1" style="rounded=0;whiteSpace=wrap;html=1;strokeWidth=8;fillColor=none;fontSize=80;strokeColor=#00BF00;fontColor=#919191;" vertex="1" parent="1">
          <mxGeometry x="1610" y="2670.5" width="100" height="100" as="geometry" />
        </mxCell>
        <mxCell id="-rPuN4XOxr21NT2z0Scn-76" value="3" style="rounded=0;whiteSpace=wrap;html=1;strokeWidth=8;fillColor=none;fontSize=80;strokeColor=#00AF00;fontColor=#919191;" vertex="1" parent="1">
          <mxGeometry x="1710" y="2670.5" width="100" height="100" as="geometry" />
        </mxCell>
        <mxCell id="-rPuN4XOxr21NT2z0Scn-77" value="3" style="rounded=0;whiteSpace=wrap;html=1;strokeWidth=8;fillColor=none;fontSize=80;strokeColor=#009F00;fontColor=#919191;" vertex="1" parent="1">
          <mxGeometry x="1810" y="2671.5" width="100" height="100" as="geometry" />
        </mxCell>
        <mxCell id="-rPuN4XOxr21NT2z0Scn-78" value="3" style="rounded=0;whiteSpace=wrap;html=1;strokeWidth=8;fillColor=none;fontSize=80;strokeColor=#008F00;fontColor=#919191;" vertex="1" parent="1">
          <mxGeometry x="1910" y="2671.5" width="100" height="100" as="geometry" />
        </mxCell>
        <mxCell id="-rPuN4XOxr21NT2z0Scn-79" value="2" style="rounded=0;whiteSpace=wrap;html=1;strokeWidth=8;fillColor=none;fontSize=80;strokeColor=#007F00;fontColor=#919191;" vertex="1" parent="1">
          <mxGeometry x="1610" y="2770.5" width="100" height="100" as="geometry" />
        </mxCell>
        <mxCell id="-rPuN4XOxr21NT2z0Scn-80" value="3" style="rounded=0;whiteSpace=wrap;html=1;strokeWidth=8;fillColor=none;fontSize=80;strokeColor=#006F00;fontColor=#919191;" vertex="1" parent="1">
          <mxGeometry x="1710" y="2770.5" width="100" height="100" as="geometry" />
        </mxCell>
        <mxCell id="-rPuN4XOxr21NT2z0Scn-81" value="3" style="rounded=0;whiteSpace=wrap;html=1;strokeWidth=8;fillColor=none;fontSize=80;strokeColor=#005F00;fontColor=#919191;" vertex="1" parent="1">
          <mxGeometry x="1810" y="2770.5" width="100" height="100" as="geometry" />
        </mxCell>
        <mxCell id="-rPuN4XOxr21NT2z0Scn-82" value="1" style="rounded=0;whiteSpace=wrap;html=1;strokeWidth=8;fillColor=none;fontSize=80;strokeColor=#004F00;fontColor=#919191;" vertex="1" parent="1">
          <mxGeometry x="1910" y="2770.5" width="100" height="100" as="geometry" />
        </mxCell>
        <mxCell id="-rPuN4XOxr21NT2z0Scn-83" value="2" style="rounded=0;whiteSpace=wrap;html=1;strokeWidth=8;fillColor=none;fontSize=80;strokeColor=#003F00;fontColor=#919191;" vertex="1" parent="1">
          <mxGeometry x="1610" y="2870.5" width="100" height="100" as="geometry" />
        </mxCell>
        <mxCell id="-rPuN4XOxr21NT2z0Scn-84" value="2" style="rounded=0;whiteSpace=wrap;html=1;strokeWidth=8;fillColor=none;fontSize=80;strokeColor=#002F00;fontColor=#919191;" vertex="1" parent="1">
          <mxGeometry x="1710" y="2870.5" width="100" height="100" as="geometry" />
        </mxCell>
        <mxCell id="-rPuN4XOxr21NT2z0Scn-85" value="1" style="rounded=0;whiteSpace=wrap;html=1;strokeWidth=8;fillColor=none;fontSize=80;strokeColor=#001F00;fontColor=#919191;" vertex="1" parent="1">
          <mxGeometry x="1810" y="2870.5" width="100" height="100" as="geometry" />
        </mxCell>
        <mxCell id="-rPuN4XOxr21NT2z0Scn-86" value="1" style="rounded=0;whiteSpace=wrap;html=1;strokeWidth=8;fillColor=none;fontSize=80;strokeColor=#000F00;fontColor=#919191;" vertex="1" parent="1">
          <mxGeometry x="1910" y="2870.5" width="100" height="100" as="geometry" />
        </mxCell>
      </root>
    </mxGraphModel>
  </diagram>
</mxfile>
